<?xml version="1.0" encoding="utf-8"?>
<!-- Generator: Adobe Illustrator 16.0.0, SVG Export Plug-In . SVG Version: 6.00 Build 0)  -->
<!DOCTYPE svg PUBLIC "-//W3C//DTD SVG 1.1//EN" "http://www.w3.org/Graphics/SVG/1.1/DTD/svg11.dtd">
<svg version="1.1" id="Layer_1" xmlns="http://www.w3.org/2000/svg" xmlns:xlink="http://www.w3.org/1999/xlink" x="0px" y="0px"
	 width="300px" height="405px" viewBox="0 -56.5 300 405" enable-background="new 0 -56.5 300 405" xml:space="preserve">
<path fill="#FFFFFF" d="M204.857-14.447c-1.555-2.154-3.035-4.371-5.203-7.51l-8.919-10.083l-4.864-5.229
	c-5.828-5.881-12.318-8.446-19.494-8.423c-7.238,0.023-13.76,2.745-19.848,8.587l-1.429,1.447
	c-3.952,4.66-7.236,8.329-10.293,12.172c-8.919,11.213-16.533,23.193-22.732,35.974l-6.867,15.152
	c-0.827,2.522-1.629,5.053-2.505,7.56c-7.32,20.946-10.627,42.542-10.644,64.638c-0.042,57.521,0.153,115.042-0.17,172.562
	c-0.058,10.239,1.961,19.263,8.224,27.42c1.777,2.315,3.067,4.991,5.168,8.476l6.368,10.688c0.708,4.992,3.256,7.175,8.428,7.177
	c20.719,0.005,41.438,0.003,62.158,0.003c10.788,0,21.577-0.003,32.366-0.003c2.114,0,4.086,0.135,4.767-2.712
	c0.559-2.337,1.55-4.665,2.8-6.733c3.631-6.008,7.591-11.823,11.221-17.832c2.43-4.021,4.361-8.334,6.852-12.312l0.393-194.422
	c-0.562-8.522-0.988-17.106-2.412-25.511C233.232,37.212,222.493,9.989,204.857-14.447z M187.382-24.745l-0.094,0.811
	c0.265-2.292,0.505-4.372,0.839-7.269l8.732,10.71c0.493,0.406,0.972,0.884,1.432,1.486c21.53,28.234,34.183,59.946,38.523,94.897
	c0.681,5.48,0.618,11.051,0.908,16.579c0.11,2.094-0.551,3.583-2.968,3.665c-2.962,0.102-2.057-2.166-2.126-3.625
	c-1.976-41.305-15.307-78.524-41.24-111.23c-0.447-0.564-0.863-1.159-1.24-1.771L187.382-24.745z M197.362-1.19
	c0.173-0.29,0.401-0.555,0.669-0.803c0.225-0.209,0.474-0.408,0.745-0.596c0.491-0.341,1.596,0.175,2.418,0.297
	c-0.585,1.383-1.174,2.774-1.924,4.547c-0.117,0.275-0.238,0.562-0.363,0.858c-0.068,0.162-0.135,0.318-0.206,0.487
	C196.839,1.4,196.694-0.073,197.362-1.19z M196.78-2.811c-0.026,0.058-0.052,0.117-0.079,0.175
	c-0.671-0.299-1.342-0.598-2.014-0.897c0.33-0.78,0.647-1.566,0.995-2.336c0.217-0.48,0.442-0.956,0.697-1.416
	c0.007-0.013,0.051-0.006,0.11,0.008l1.949,0.766c-0.349,0.777-0.697,1.555-1.046,2.332C197.189-3.722,196.984-3.267,196.78-2.811z
	 M199.227,4.003c0.117-0.15,0.258-0.306,0.418-0.465c0.631-0.627,1.601-1.339,2.972-2.281c2.88,2.379,2.669,3.483-1.744,6.487
	c-0.078,0.053-0.163,0.109-0.243,0.164c-0.161,0.109-0.314,0.213-0.486,0.327C198.735,6.219,198.287,5.216,199.227,4.003z
	 M201.193,9.48c0.04-0.054,0.092-0.108,0.138-0.162c0.74-0.879,2.201-1.795,4.518-2.97c1.854,2.609,1.356,3.708-3.305,6.894
	c-0.02,0.013-0.037,0.025-0.057,0.039c-0.083,0.057-0.158,0.109-0.244,0.167C200.755,11.803,200.313,10.663,201.193,9.48z
	 M203.275,15.983c0.031-0.13,0.074-0.253,0.118-0.375c0.79-2.221,3.516-3.179,4.614-5.138c2.742,2.82,1.868,4.803-3.593,7.983
	c-0.116,0.068-0.238,0.137-0.358,0.206c-0.164,0.094-0.317,0.185-0.489,0.28C203.133,17.736,203.085,16.782,203.275,15.983z
	 M205.398,21.19c0.354-1.77,2.044-3.335,5.454-5.451c2.453,2.747,1.138,5.42-4.346,8.539c-0.161,0.091-0.313,0.182-0.481,0.274
	C205.424,23.272,205.196,22.198,205.398,21.19z M207.438,26.874c0.453-1.492,2.223-3.106,6.093-6.102
	c1.595,3.246-0.042,6.003-5.073,8.942c-0.147,0.086-0.288,0.172-0.441,0.259C207.401,28.762,207.145,27.843,207.438,26.874z
	 M209.388,32.303c0.428-1.864,2.454-3.76,6.407-6.263c0.146,0.226,0.273,0.447,0.388,0.665c0.889,1.705,0.768,3.206-0.538,4.837
	c-0.984,1.23-2.646,2.538-5.069,4.066c-0.094,0.059-0.179,0.116-0.274,0.175C209.456,34.55,209.129,33.433,209.388,32.303z
	 M211.512,38.218c0.165-1.842,1.472-3.546,3.978-5.283c0.659-0.457,1.391-0.916,2.217-1.38c1.819,2.567,0.926,5.065-2.933,7.817
	c-0.679,0.484-1.451,0.978-2.316,1.479c-0.125,0.073-0.241,0.145-0.371,0.218C211.617,40.07,211.431,39.128,211.512,38.218z
	 M214.492,41.904c0.954-1.632,2.823-3.188,5.511-4.553c1.642,2.805,0.021,5.427-5.622,8.858c-0.063,0.038-0.12,0.076-0.185,0.114
	c-0.06-0.131-0.104-0.262-0.151-0.394c-0.174-0.479-0.271-0.96-0.281-1.44C213.745,43.618,213.997,42.751,214.492,41.904z
	 M221.835,42.674c0.023,0.042,0.04,0.082,0.062,0.123c1.245,2.346,1.016,4.044-1.376,6.273c-0.963,0.899-2.267,1.881-3.98,3.033
	c-0.05-0.083-0.087-0.165-0.133-0.248c-0.335-0.61-0.55-1.203-0.64-1.783C215.372,47.529,217.337,45.221,221.835,42.674z
	 M220.034,51.293c0.916-0.735,2.092-1.529,3.562-2.422c1.399,3.147,0.068,5.35-4.876,8.42c-0.1,0.062-0.191,0.122-0.294,0.184
	c-0.015,0.009-0.028,0.019-0.044,0.028c-0.61-0.924-0.916-1.755-0.869-2.571C217.58,53.765,218.373,52.627,220.034,51.293z
	 M219.812,59.228c1.051-1.675,2.318-3.22,3.538-4.793c0.16-0.207,0.322-0.412,0.48-0.621c0.025,0.022,0.051,0.043,0.076,0.065
	c0.431,0.372,0.861,0.744,1.293,1.115c0.791,2.695-1.327,6.682-3.899,7.196c-0.334,0.066-0.896-0.027-1.24-0.165
	c-0.165-0.065-0.285-0.14-0.3-0.214c-0.065-0.329-0.124-0.697-0.158-1.061C219.548,60.182,219.565,59.621,219.812,59.228z
	 M225.905,60.97c0.119-0.069,0.229-0.135,0.352-0.205c1.204,2.187,1.312,3.521-0.155,5.097c-0.709,0.763-1.782,1.582-3.287,2.583
	c-0.365-0.412-0.651-0.802-0.873-1.18c-0.278-0.474-0.445-0.926-0.491-1.368C221.284,64.295,222.693,62.829,225.905,60.97z
	 M226.196,68.216c0.495-0.315,1.059-0.644,1.712-0.997c1.358,2.885,0.062,4.264-1.531,5.492c-0.479,0.37-0.984,0.726-1.453,1.104
	C223.037,71.448,223.229,70.105,226.196,68.216z M226.47,75.04c0.438-0.477,1.028-0.905,1.646-1.326
	c0.532,0.191,1.063,0.383,1.595,0.574c-0.69,1.798-1.382,3.596-2.072,5.394c-0.419-0.384-0.757-0.743-1.025-1.08
	C225.37,77.043,225.634,75.953,226.47,75.04z M230.223,80.359c-0.169,1.553-0.337,3.106-0.505,4.66
	c-0.479-0.036-0.961-0.071-1.44-0.107c-0.006,0-0.011-0.001-0.017-0.001c-0.423-0.78-0.881-1.562-0.813-2.309
	C227.521,81.797,228.204,81.035,230.223,80.359z M187.678-18.79c13.824,37.129,27.732,74.229,41.519,111.371
	c0.127,0.341,0.255,0.683,0.382,1.024c0.942,2.542,1.364,5.388,1.428,8.106c0.184,7.956,0.028,15.918,0.085,23.878l-0.02,8.718
	c-0.034,0.601,0,1.206,0,1.809c0,41.964,0.001,83.929-0.002,125.893c0,5.071,0,10.142,0,15.213
	c-0.001,5.112-0.015,5.461-4.475,5.484c-0.312,0.002-0.645,0.002-1.003,0.002c-4.33,0.001-8.659,0-12.989,0
	c-33.102,0.003-66.202,0.004-99.303,0c-1.806,0-3.612,0-5.418,0c-0.823,0-1.509-0.003-2.104-0.022
	c-3.381-0.108-3.406-0.812-3.406-5.446c-0.004-47.035,0.048-94.07-0.095-141.105l0.049-11.303c0.174-3.73,0.462-7.529-0.03-11.204
	c-1.586-11.828,1.843-22.555,5.902-33.187c0.163-0.425,0.324-0.851,0.488-1.276c0.646-1.674,1.303-3.347,1.955-5.022
	c4.468-11.483,8.671-23.067,12.969-34.614l2.293-6.248l1.369-3.467c0.065-0.235,0.146-0.481,0.244-0.741
	c3.525-9.364,7.019-18.739,10.498-28.121c2.443-6.588,4.882-13.179,7.305-19.774c0.778-2.119,1.977-3.119,4.294-3.109
	c4.468,0.02,8.937,0.028,13.406,0.034c6.812,0.009,13.624,0.004,20.436-0.035C185.826-21.947,186.898-20.883,187.678-18.79z
	 M205.282,297.956c2.164-2.171,4.34-4.334,6.553-6.457c2.16-2.073,4.355-4.109,6.611-6.078c1.124-0.981,3.192-0.916,4.826-1.332
	c0.178,0.359,0.354,0.718,0.532,1.077c-2.805,2.771-5.607,5.544-8.416,8.31c-1.364,1.345-2.709,2.714-4.08,4.052
	c-1.059,1.034-2.133,2.053-3.254,3.017c-0.604,0.52-2,0.149-3.032,0.188C205.089,299.787,204.77,298.471,205.282,297.956z
	 M195.025,285.621c0.723-0.369,1.504-0.627,2.303-0.854c1.009-0.287,2.047-0.518,3.056-0.803c0.169,0.234,0.337,0.468,0.506,0.701
	c0.345,0.478,0.688,0.955,1.033,1.433c-1.467,0.826-2.878,1.779-4.424,2.423c-0.788,0.327-1.815,0.099-2.735,0.121
	C194.83,287.595,194.539,285.871,195.025,285.621z M197.957,290.815c0.764-2.928,6.906-6.644,10.7-5.201
	c-2.524,2.235-4.995,4.536-7.616,6.656c-0.587,0.476-1.729,0.494-2.557,0.363C198.2,292.588,197.812,291.373,197.957,290.815z
	 M201.988,293.8c2.65-2.835,5.322-5.705,8.349-8.123c0.579-0.463,1.308-0.745,2.09-0.962c0.599-0.166,1.227-0.296,1.852-0.429
	c0.514-0.108,1.022-0.223,1.506-0.368c0.048,0.107,0.095,0.215,0.143,0.321c0.165,0.373,0.331,0.745,0.495,1.117
	c-1.479,1.429-2.951,2.865-4.426,4.298c-2.434,2.363-4.879,4.714-7.398,6.983c-0.548,0.494-2.049-0.035-3.107-0.09
	C201.637,295.614,201.448,294.378,201.988,293.8z M209.579,301.52c0.499-0.512,1.013-1.011,1.514-1.521l14.896-14.493
	c0.923-0.595,2.083-0.947,3.096-1.45c0.269,0.349,0.537,0.697,0.806,1.046c-1.085,1.517-1.991,3.204-3.286,4.521
	c-0.635,0.646-1.283,1.278-1.921,1.921c-4.137,4.17-8.323,8.294-12.599,12.325c-0.344,0.324-0.841,0.493-1.383,0.613
	c-0.631,0.141-1.325,0.216-1.928,0.385C209.021,303.732,208.884,302.233,209.579,301.52z M106.934,289.852
	c0.66-2.213,3.526-4.224,6.415-4.985c1.128-0.298,2.26-0.41,3.266-0.261c0.298,0.353,0.597,0.706,0.896,1.06
	c-1.357,1.172-2.706,2.354-4.064,3.525c-1.187,1.022-2.381,2.038-3.605,3.016c-0.481,0.385-1.848,0.477-2.138,0.144
	C107.165,291.728,106.717,290.578,106.934,289.852z M105.718,287.622c-0.017,0.007-0.033,0.016-0.05,0.022
	c-0.405,0.153-1.506-1.467-3.047-3.06c1.214,0,2.193,0,3.133,0c1.235,0,2.401,0,3.925,0
	C107.939,285.997,106.95,287.134,105.718,287.622z M110.116,295.022c0.021-0.148,0.087-0.325,0.185-0.521
	c0.451-0.907,1.667-2.285,3.182-3.739c3.178-3.051,7.662-6.434,9.141-6.488c0.462-0.017,0.931,0.137,2.375,0.368
	c-3.871,3.811-7.277,7.209-10.689,10.488c-0.237,0.229-0.475,0.454-0.712,0.681c-0.251,0.24-0.502,0.48-0.753,0.72
	c-0.46,0.437-1.556,0.598-2.166,0.376C110.292,296.767,110.027,295.646,110.116,295.022z M113.648,298.068
	c0.059-0.061,0.103-0.121,0.167-0.183c0.832-0.808,1.653-1.626,2.475-2.444c3.208-3.195,6.375-6.432,9.771-9.419
	c1.3-1.145,3.342-1.478,5.473-2.203h0.411l-0.181-0.081c0.083,0.003,0.165,0.006,0.247,0.009c-0.022,0.024-0.044,0.048-0.066,0.072
	c-3.973,4.296-7.711,8.338-11.371,12.294c-2.05,2.217-4.077,4.408-6.106,6.603c-0.277-0.218-0.517-0.429-0.729-0.636
	C112.258,300.63,112.368,299.404,113.648,298.068z M116.932,302.232c0.28-0.29,0.564-0.576,0.844-0.865
	c1.605-1.655,3.224-3.298,4.853-4.931c3.489-3.499,7.033-6.945,10.67-10.29c1.41-1.297,3.72-1.646,5.616-2.432
	c0.274,0.399,0.547,0.8,0.821,1.199c-0.42,0.528-0.821,1.076-1.254,1.591c-0.15,0.179-0.289,0.368-0.455,0.532
	c-3.441,3.402-6.883,6.806-10.339,10.193c-2.702,2.648-5.41,5.291-8.151,7.898c-0.797,0.758-2.361,0.734-3.569,1.074
	C116.264,304.856,116.107,303.086,116.932,302.232z M138.192-5.774c-0.302,3.889-2.411,7.909-6.525,12.269
	c-1.821,1.93-4.043,3.928-6.672,6.01c-0.772,0.611-1.567,1.228-2.411,1.854c0.771-2.103,1.669-4.055,2.719-5.917
	c2.078-3.682,4.773-6.998,8.367-10.343C135.043-3.18,136.541-4.463,138.192-5.774z M133.903-5.626
	c2.642-3.663,5.284-7.326,7.925-10.988c-0.02,0.47-0.065,0.923-0.122,1.369c-0.451,3.527-2.065,6.274-4.912,8.156
	C135.94-6.525,134.981-6.033,133.903-5.626z M133.254,7.173c-1.747,9.501-10.573,13.374-16.101,19.869
	c0.208-1.056,0.511-2.035,0.875-2.966c0.794-2.033,1.924-3.797,3.254-5.404C124.78,14.447,129.631,11.299,133.254,7.173z
	 M128.908,18.823c-0.045,0.264-0.117,0.506-0.173,0.761c-1.006,4.552-3.701,7.745-6.837,10.584
	c-3.092,2.798-6.594,5.269-9.288,8.393C114.734,29.268,123.06,25.07,128.908,18.823z M118.155,35.96
	c2.277-2.074,4.608-4.161,6.589-6.672c-1.021,8.371-2.872,8.921-16.176,21.512c-0.027,0.026-0.052,0.049-0.079,0.075
	C109.527,43.955,113.739,39.982,118.155,35.96z M116.317,46.261c1.307-1.115,2.563-2.271,3.624-3.579
	c-0.916,7.468-6.97,10.959-11.734,15.472c-0.372,0.353-0.734,0.712-1.088,1.08c-0.126,0.131-0.256,0.258-0.379,0.392
	c0.135-1.879,0.648-3.471,1.39-4.888C109.964,51.236,113.274,48.857,116.317,46.261z M108.269,60.84
	c2.335-2.522,5.311-4.58,7.413-7.546c-0.015,0.838-0.08,1.62-0.193,2.361l-0.036,0.087l0.033-0.064
	c-0.338,2.196-1.123,4.02-2.375,5.779c-0.475,0.667-1.014,1.327-1.628,1.993c-0.883,0.957-1.908,1.929-3.087,2.966
	c-1.116,0.982-2.366,2.021-3.757,3.162C104.638,65.66,106.204,63.069,108.269,60.84z M108.436,68.204
	c0.338-0.277,0.68-0.55,1.021-0.823c0.611-0.488,1.222-0.974,1.805-1.478c-0.003,0.035-0.012,0.066-0.015,0.101
	c-0.282,2.808-1.194,5.215-2.696,7.311c-0.218,0.306-0.428,0.616-0.672,0.907c-0.984,1.176-2.201,2.236-3.602,3.214
	c-0.252,0.176-0.486,0.359-0.751,0.529C103.024,73.146,105.577,70.545,108.436,68.204z M105.991,77.749
	c0.123,0.062,0.245,0.124,0.367,0.186c0.378,0.191,0.756,0.382,1.134,0.573c-1.234,2.489-2.468,4.979-3.702,7.468
	c-0.201-0.102-0.402-0.203-0.604-0.305c-0.249-0.125-0.497-0.25-0.746-0.375c-0.122-0.062-0.245-0.124-0.367-0.186
	c0.132-0.249,0.265-0.497,0.396-0.745C103.644,82.159,104.817,79.954,105.991,77.749z M179.572-26.069
	c-0.852,1.178-1.873,2.009-3.178,2.248l-1.217,0.046c-1-0.087-2.143-0.473-3.469-1.249c1.716-1.312,3.346-2.766,5.191-3.869
	c0.712-0.426,1.811-0.226,2.779-0.235c0.085-0.001,0.171,0,0.254-0.005c-0.01,0.106-0.015,0.216-0.018,0.327
	C179.885-27.836,180.05-26.729,179.572-26.069z M176.192-32.651c-0.124,0.823,0.046,1.902-0.423,2.424
	c-1.762,1.961-3.57,3.957-5.688,5.508c-1.078,0.79-2.623,0.961-4.047,1.294l-0.687,0.026c-0.065-0.15-0.132-0.301-0.197-0.451
	c-0.058-0.131-0.114-0.263-0.172-0.394c2.851-2.845,5.646-5.75,8.614-8.47c0.262-0.241,0.798-0.194,1.373-0.105
	C175.384-32.754,175.82-32.669,176.192-32.651z M175.934-34.246c0.096,0.094,0.195,0.185,0.291,0.278l-0.053,0.048L175.934-34.246z
	 M156.956-24.088c3.575-3.632,6.978-7.327,10.695-10.685c0.845-0.763,2.782-0.355,4.614-0.523
	C168.918-28.387,161.203-22.875,156.956-24.088z M149.653-23.354c0.196-0.425,0.425-0.851,0.67-1.274
	c3.263-5.622,10.615-10.899,15.06-10.255c0.019,0.002,0.038,0,0.057,0.003C160.285-31.128,158.086-23.463,149.653-23.354z
	 M185.293-25.512c-3.071-2.934-5.762-5.504-8.958-8.557c-0.118-0.113-0.227-0.216-0.347-0.331c0.312-0.068,0.601-0.117,0.898-0.174
	C185.087-36.133,187.535-33.377,185.293-25.512z M181.371-37.116c-10.025,0-19.561,0-29.516,0
	C158.835-44.694,174.244-44.659,181.371-37.116z M110.095,23.172c1.258-2.324,2.505-4.655,3.75-6.987
	c0.902-1.688,1.804-3.377,2.707-5.065c3.777-7.059,7.595-14.095,11.708-20.96c3.582-5.98,8.414-11.234,12.653-16.836
	c0.357-0.473,0.697-0.966,1.04-1.476c0.543-0.808,1.093-1.666,1.738-2.622c0,0,6.978-6.393,12.541-4.265
	c-3.369,3.546-6.534,6.879-9.699,10.21c-8.933,10.594-16.809,21.868-23.429,33.943c-1.237,2.256-2.445,4.53-3.592,6.844
	c-1.502,3.031-2.987,6.084-4.226,9.224c-0.83,2.105-1.904,2.307-3.934,1.628C109.033,26.038,109.287,24.663,110.095,23.172z
	 M95.091,93.148c0.577-8.271,0.664-16.677,2.335-24.75c2.581-12.468,6.31-24.706,9.584-37.033c0.124-0.465,0.32-0.915,0.558-1.413
	c0.225-0.472,0.487-0.988,0.763-1.61c1.727,0.638,3.064,1.133,4.757,1.759c-1.35,4.152-2.685,8.115-3.929,12.104
	c-0.422,1.353-0.826,2.708-1.222,4.065c-4.412,15.123-7.172,30.51-7.173,46.356c0,1.309-0.725,3.235-1.733,3.799
	C96.826,97.656,94.884,96.111,95.091,93.148z M95.025,189.404c0-28.566-0.012-57.133,0.031-85.699
	c0.002-1.775-0.757-4.152,2.125-4.656c1.886-0.331,3.489,0.083,3.598,2.432c0.05,1.083,0.056,2.168,0.056,3.253
	c0.002,56.409,0.019,112.818-0.059,169.228c-0.003,2.166,1.493,5.715-2.812,5.748c-4.309,0.032-2.874-3.51-2.881-5.692
	C94.995,245.812,95.024,217.608,95.025,189.404z M95.371,284.152c0.05-0.701,0.992-1.88,1.549-1.896
	c1.199-0.034,2.981,0.166,3.52,0.943c1.602,2.315,2.717,4.955,4.046,7.513C98.672,292.338,94.981,289.617,95.371,284.152z
	 M114.059,316.203c-0.038-0.029-0.085-0.054-0.112-0.086c-1.441-1.707-2.528-3.703-3.954-5.903l-2.06-3.52
	c-3.179-4.047-5.705-8.59-8.745-13.344c0.596-0.139,1.165-0.247,1.71-0.325c2.145-0.306,3.898-0.104,5.297,0.831
	c0.964,0.645,1.762,1.632,2.399,3.055c0.928,2.074,2.34,3.941,3.565,5.883c0.583,0.924,1.099,1.927,1.66,2.878
	c1.56,2.644,3.472,4.867,8.167,3.731c-0.051,0.383-0.103,0.765-0.154,1.146c-1.69,1.928-3.274,3.967-5.143,5.708
	C116.237,316.681,114.611,316.619,114.059,316.203z M148.785,315.984l34.926-0.059C172.071,316.084,160.428,316.021,148.785,315.984
	z M211.279,315.888l-75.488,0.048c-4.029,0.246-8.084,0.085-12.128,0.054c-0.844-0.007-1.688-0.097-2.861-0.206
	c-0.409-0.038-0.857-0.078-1.36-0.118c0.806-0.92,1.598-1.824,2.387-2.726c6.637-7.585,12.681-14.537,18.853-21.368
	c0.83-0.92,2.556-1.477,3.872-1.485c14.583-0.103,29.167-0.12,43.75,0.02c1.519,0.015,3.47,0.791,4.467,1.882
	c2.553,2.789,5.066,5.614,7.566,8.45c3.592,4.073,7.151,8.176,10.72,12.269c0.62,0.711,1.05,1.583,2.162,3.294
	C212.567,315.941,211.922,315.909,211.279,315.888z M227.243,303.625c-2.472,3.88-4.853,7.822-7.492,11.587
	c-0.061,0.086-0.146,0.172-0.24,0.256c-0.747,0.665-2.418,1.22-2.784,0.913c-1.894-1.588-3.522-3.481-5.213-5.305
	c-0.146-0.204-0.297-0.402-0.444-0.604c0.015-0.317,0.029-0.634,0.044-0.951c6.117,1.329,7.555-3.126,9.739-6.646
	c0.722-1.162,1.43-2.332,2.139-3.502c0.608-1.004,1.217-2.008,1.839-3.005c2.362-3.782,3.27-4.104,8.832-2.819
	C231.452,297.017,229.348,300.32,227.243,303.625z M227.459,291.115c3.573-3.282,3.366-8.413,8.698-8.807l0.457,6.126
	C234.957,292.527,231.678,291.301,227.459,291.115z M237.733,189.374c0.001,13.942-0.003,27.884-0.003,41.826
	c0,14.268,0.002,28.535-0.003,42.803c0,1.323,0.176,2.742-0.252,3.934c-0.277,0.773-1.505,1.678-2.308,1.678
	c-0.801,0.002-1.988-0.896-2.311-1.678c-0.433-1.05-0.244-2.366-0.244-3.568c-0.001-6.499,0-12.997-0.001-19.496
	c-0.005-50.162-0.007-100.324-0.007-150.485c0-0.241-0.022-0.484,0.005-0.723c0.215-1.889-0.722-4.6,2.556-4.601
	c3.271-0.001,2.537,2.704,2.54,4.598C237.746,132.232,237.733,160.803,237.733,189.374z"/>
<g>
	<path fill="#FFFFFF" d="M64.586,279.331c-0.314,0.023-0.705-0.107-0.884-0.174c-0.182-0.059-0.173-0.097-0.182-0.211
		c-0.012-0.12,0.117-0.428,0.39-0.922c0.268-0.497,0.476-1.169,0.476-1.169s-0.009,0.258,0,0.474c0.007,0.216,0.022,0.325,0,0.515
		c-0.018,0.191,0.092,0.542,0.2,0.729c0.11,0.191,0.136,0.253,0,0.431C64.45,279.188,64.611,279.328,64.586,279.331 M83.145,324.083
		c-0.572-0.391-0.979-1.195-1.004-1.697c-0.025-0.497-0.299-0.57,0.042-0.945c0.336-0.38,0.121-1.113,0.121-1.426
		c0-0.314,0.377-0.877,0.407-1.195c0.028-0.308,0.173-0.866-0.137-1.772c-0.308-0.91-0.881-3.644-0.934-4.248
		c-0.055-0.591-0.067-1.148-0.294-1.675c-0.237-0.53-0.383-0.691-0.437-1.671c-0.054-0.97,0.162-0.97-0.216-1.3
		c-0.386-0.321-0.518-0.34-0.518-1.242c0-0.908-0.059-1.356-0.217-1.913c-0.167-0.558-0.271-1.316-0.271-1.842
		c0-0.532,0.619-2.199,0.162-3.233c-0.463-1.026-0.623-4.415-0.588-5.09c0.045-0.682,0.29-1.116,0.088-2.104
		c-0.205-0.99-0.383-1.543-0.383-2.008c0-0.456,0.096-0.583-0.024-0.772c-0.124-0.187-0.08-0.324-0.124-0.606
		c-0.038-0.284-0.391-0.137-0.391-0.923s0.174-0.826-0.053-1.251c-0.233-0.418-0.125-0.469-0.208-0.959
		c-0.078-0.49,0.22-1.224,0.018-1.614c-0.209-0.393-0.275-0.272-0.258-0.989c0.014-0.718,0.286-0.894,0.025-1.367
		c-0.257-0.478-0.515-0.514-0.341-0.938c0.184-0.419,0.465-0.812,0.651-0.866c0.192-0.055,1.046-0.324,1.34-1.398
		c0.298-1.07,0.515-2.321,0.751-3.062c0.228-0.745,0.365-1.463,0.365-1.463s1.298,0.078,1.149-0.922
		c-0.149-1.004-0.308-3.054-0.879-4.34c-0.564-1.286-0.557-1.868-2.022-2.367c-1.46-0.502-1.829-0.897-2.409-0.857
		c0,0-0.3,0.089-0.5-0.095c-0.19-0.188-0.281-0.238-0.406-0.212c-0.116,0.023,0.025,0.305-0.195,0.163
		c-0.215-0.141-1.033-0.402-1.261-0.675c-0.22-0.27-0.204-0.646-0.186-1.015c0.013-0.379,0.148-2.012,0.198-1.942
		c0.059,0.066,0.329,0.27,0.598,0.034c0.274-0.241,0.286-0.754,0.407-1.22c0.124-0.462,0.133-0.912,0.033-1.007
		c-0.09-0.097-0.207,0-0.207,0s0.374-1.571-0.1-2.498c-0.481-0.926-1.875-1.612-2.48-1.792c-0.611-0.183-1.511-0.577-2.63-0.043
		c-1.121,0.535-2.123,1.34-2.341,2.494c-0.214,1.146,0.095,2.137,0.095,2.137s-0.102,0.024-0.095,0.218
		c0.005,0.185,0.227,0.653,0.252,0.854c0.027,0.206,0.137,0.602,0.137,0.76c0,0.159-0.021,0.265,0.123,0.332
		c0.141,0.079,0.283,0.111,0.31,0.184c0.024,0.079,0.132,0.645,0.257,0.801c0.12,0.157,0.167,0.212,0.162,0.459
		c-0.007,0.257,0.054,0.911,0.054,1.195c0,0.288,0.062,0.354-0.157,0.486c-0.217,0.141-0.758,0.381-0.886,0.47
		c-0.127,0.087-0.252-0.064-0.488,0c-0.239,0.062-0.847,0.347-1.237,0.476c-0.388,0.129-0.66,0.245-0.939,0.307
		c-0.28,0.064-1.453,0.362-1.674,0.606c-0.215,0.246-0.421,0.468-0.747,0.951c-0.329,0.478-1.386,2.717-1.556,3.038
		c-0.17,0.314-0.649,1.344-0.832,1.694c-0.179,0.349-0.361,0.805-0.369,0.867c-0.009,0.066,0.062,0.047,0.271,0.2
		c0.208,0.152,0.488,0.332,0.585,0.435c0.102,0.096,0.048-0.046,0,0.333c-0.041,0.381-0.215,1.173-0.304,1.748
		c-0.089,0.565-0.255,1.616-0.37,1.995c-0.12,0.376-0.311,1.451-0.289,1.842c0.018,0.39,0.258,0.867,0.396,1.066
		c0.135,0.197,0.463,0.542,0.722,0.551c0.263,0.014,0.632-0.15,1.114,0c0.479,0.152,1.04,0.219,1.524,0.146
		c0.492-0.069,0.815-0.106,0.815-0.106s-0.259,0.466-0.263,0.991c0,0.521,0.077,1.249,0,1.484c-0.073,0.231-0.251,0.647-0.251,0.79
		c0,0.148-0.183,0.579-0.055,1.015c0.128,0.429-0.071,1.065-0.199,1.498c-0.127,0.438-0.107,1.306-0.217,1.484
		c-0.106,0.182-0.133,0.652,0.017,0.686c0,0-0.228,2.666-0.216,3.518c0.016,0.855-0.206,2.905,0.065,4.016
		c0.274,1.109,0.435,3.308,0.693,3.876c0.26,0.567,0.421,2.241,0.458,2.548c0.045,0.314,0.588,1.617,0.6,2.497
		c0.013,0.885-0.178,2.101-0.285,2.494c-0.11,0.393-0.246,0.921-0.068,1.313c0.174,0.391,0.38,0.718,0.229,1.195
		c-0.148,0.469-0.365,1.07-0.312,1.474c0.052,0.405,0.137,0.614,0.013,0.871c-0.122,0.253-0.284,0.54-0.066,0.987
		c0.216,0.448,0.353,1.626,0.341,1.966c-0.019,0.342-0.043,1.125-0.082,1.312c-0.043,0.191-0.206,0.357,0.159,0.491
		c0.368,0.136,0.706,0.463,0.38,0.608c-0.323,0.148-0.582-0.16-0.718,0.275c-0.136,0.43-0.391,0.755-0.136,1.002
		c0.259,0.241,0.408,0.541,0.259,0.822c-0.15,0.29-0.543,0.968-0.878,1.032c-0.341,0.066-0.748-0.376-1.306,0.066
		c-0.557,0.449-0.771,1.033-0.771,1.033s0.488-0.506,0.666-0.584c0.174-0.08,0.283-0.58,0.718-0.431
		c0.433,0.143,0.706,0.156,0.408,0.393c-0.303,0.228-0.555,0.528-0.871,0.756c-0.31,0.231-0.638,0.353-1.028,0.502
		c-0.395,0.148-1.303,0.951-1.151,1.34c0.148,0.397,0.744,0.465,1.79,0.478c1.039,0.013,2.221-0.136,2.833-0.34
		c0.607-0.205,0.637-0.282,1.312-0.325c0.68-0.04,2.361-0.121,2.78-0.219c0.419-0.093,0.53-0.24,0.502-1.055
		c-0.025-0.812-0.067-1.548-0.175-1.816c-0.111-0.273-0.327-0.707-0.315-0.963c0.012-0.258,0.012-0.733,0.233-1.017
		c0.216-0.286,0.573-0.778,0.382-1.005c-0.191-0.228-0.506-0.797-0.34-1.045c0.166-0.239,0.418-0.933,0.407-1.368
		c-0.014-0.433-0.317-1.474-0.067-2.084c0.241-0.614,0.241-3.041,0.199-3.51c-0.042-0.476-0.173-0.818-0.025-1.206
		c0.15-0.394,0.096-0.95-0.016-1.263c-0.104-0.311-0.323-0.393-0.104-0.91c0.216-0.514,0.228-1.977,0.163-2.467
		c-0.067-0.489-0.183-0.786-0.024-1.302c0.148-0.51,0.365-0.894,0.323-1.436c-0.041-0.545,0.08-1.95,0.257-2.457
		c0.175-0.498-0.067-0.686,0.175-1.273c0.245-0.58,0.283-0.903,0.34-1.173c0.053-0.276-0.174-0.897,0.191-0.343
		c0.365,0.558,1.423,3.062,1.543,3.688c0.12,0.625,1.045,3.063,1.167,3.362c0.12,0.301,0.949,1.787,1.189,2.521
		c0.245,0.731,0.44,1.449,0.615,1.72c0.175,0.271,0.12,0.514,0.132,0.895c0.012,0.382-0.132,1.896,0.19,2.697
		c0.324,0.803,0.242,1.207,0.407,1.626c0.166,0.417,0.435,1.301,0.472,1.722c0.042,0.419-0.024,1.53,0.423,2.524
		c0.444,0.989,0.896,1.355,0.854,1.662c-0.046,0.314-0.423,0.979-0.341,1.248c0.08,0.273,0.61,0.927,0.558,1.278
		c-0.059,0.354,0.024,1.477,0.12,1.742c0.095,0.274,0.285,0.386,0.285,0.68c0,0.3,0,0.275,0.175,0.354
		c0.178,0.081,0.283,0.667,0.829,0.854c0.54,0.187,2.997,0.148,3.212-0.38C83.361,325.152,83.713,324.477,83.145,324.083"/>
</g>
</svg>
