<?xml version="1.0" encoding="utf-8"?>
<!-- Generator: Adobe Illustrator 16.0.0, SVG Export Plug-In . SVG Version: 6.00 Build 0)  -->
<!DOCTYPE svg PUBLIC "-//W3C//DTD SVG 1.1//EN" "http://www.w3.org/Graphics/SVG/1.1/DTD/svg11.dtd">
<svg version="1.1" id="Layer_1" xmlns="http://www.w3.org/2000/svg" xmlns:xlink="http://www.w3.org/1999/xlink" x="0px" y="0px"
	 width="300px" height="405px" viewBox="0 -56.5 300 405" enable-background="new 0 -56.5 300 405" xml:space="preserve">
<g>
	<path fill="#FFFFFF" d="M208.274,102.775c-2.548,0-5.14,0.012-7.73-0.016c-0.348-0.002-0.695-0.199-1.091-0.322
		c0.769-0.776,1.445-1.459,1.546-1.56c1.637-0.684,2.576-1.075,3.156-1.319c0.435-2.39,0.785-4.316,1.14-6.26
		c-0.967-0.963-1.938-1.93-2.906-2.896c-2.588,0.381-3.209-2.191-5.172-3.294c-1.874,0-4.067-0.089-6.248,0.038
		c-1.135,0.064-2.663,0.146-3.292,0.857c-1.73,1.954-4.172,2.729-6.47,4.459c0.386,2.278,0.794,4.678,1.186,6.982
		c1.6,1.174,4.225,0.634,4.424,3.419c-1.947-0.521-3.888,0.47-5.9-0.812c-1.768-1.125-3.79-2.042-6.117-2.327l0.444-0.948
		c0.877-0.531,1.818-1.102,2.982-1.807c0.225-1.782,0.52-4.111,0.789-6.251c0.021-0.179,0.047-0.364,0.069-0.54
		c-0.645-0.643-0.907-1.148-1.23-1.191c-2.193-0.29-3.844-1.405-5.433-2.899c-0.995-0.933-2.317-1.617-3.907-1.484
		c-1.633,0.137-3.284,0.031-4.429,0.031c-2.361,1.53-4.351,2.817-6.534,4.232c0-1.926,0-3.799,0-5.659c0-3.676,0-7.28,0-11.006
		c4.981,0,9.935,0,14.91,0c2.453,0,4.897,0,7.376,0c-0.257-1.669-0.923-3.234-0.984-4.718c-0.042-1.003,0.188-1.969,1.021-2.901
		c-0.58-0.581-0.968-0.969-1.386-1.387c-6.839,0-13.706,0.001-20.574-0.011c-0.101,0-0.225-0.149-0.295-0.257
		c-0.043-0.068-0.007-0.189-0.007-0.431c9.354,0,18.694,0,27.997,0c2.207,0,4.415,0,6.611,0c1.15,0,2.311,0,3.458,0
		c0.533-0.535,0.922-0.923,1.266-1.264c0.677-2.506-1.267-4.151-1.845-6.282c-26.839,0-53.627,0-80.417,0
		c-0.412,0-0.84-0.071-1.234,0.013c-1.246,0.266-2.479,0.589-3.478,0.832c-0.393,1.66-0.718,3.038-0.934,3.955
		c0.68,1.032,1.275,1.938,1.844,2.801c12.866,0,25.483,0,38.102,0.012c0.058,0,0.116,0.183,0.383,0.633c-0.963,0-1.75,0-2.537,0
		c-5.634,0-11.269,0.019-16.903-0.016c-1.135-0.007-2.194-0.02-2.895,1.238c0,2.453,0,5.023,0,7.886c7.418,0,14.765,0,22.184,0
		c0,5.5,0.002,10.712-0.009,15.923c0,0.108-0.113,0.235-0.205,0.32c-0.069,0.067-0.188,0.083-0.285,0.122
		c-1.942-1.304-3.887-2.608-5.981-4.012c-1.962,0-4.154,0-6.598,0c-1.174,1.003-2.362,2.309-3.812,3.174
		c-1.392,0.83-3.056,1.202-4.548,1.755c0,1.706-0.142,3.091,0.042,4.431c0.172,1.25,0.692,2.45,1.117,3.867
		c1.924-0.603,2.69,0.925,4.204,2.586c-3.626-0.782-5.989,0.942-8.479,2.305c-1.374,0-2.748,0.02-4.122-0.016
		c-0.337-0.009-0.67-0.205-1.016-0.318c0.747-0.78,1.412-1.473,1.692-1.765c1.321-0.452,2.164-0.741,2.855-0.978
		c0.364-1.408,0.735-2.511,0.92-3.645c0.208-1.276,0.249-2.58,0.344-3.656c-2.919-1.914-5.511-3.613-7.933-5.2
		c-2.91,0-5.634,0-8.542,0c-0.963,1.062-1.972,2.172-2.962,3.262c-2.547-0.458-3.065,1.938-4.543,2.798
		c0.407,2.108,0.776,4.027,1.207,6.261c0.869,1.415,4.173,0.268,4.242,3.234c-3.847,0-7.689,0-10.896,0
		c-0.764,0.845-1.336,1.479-1.859,2.058l-0.489,0.026c0.161-0.006,0.32-0.012,0.48-0.018c-0.146,0.163-0.291,0.321-0.432,0.479
		c0.057,0.056,0.348,0.348,0.776,0.776c9.325,0,18.791-0.095,28.252,0.054c2.381,0.038,4.475-0.454,6.458-1.496l11.468,0.685
		c2.844,3.647,5.75,7.376,8.713,11.178c-1.215,1.031-2.111,2.234-3.295,2.7c-2.339,0.919-3.98,2.375-4.797,4.474
		c0.596,2.169,1.168,4.256,1.551,5.655c2.629,1.8,4.748,3.251,6.987,4.784c1.37,0,2.886,0.111,4.378-0.03
		c1.546-0.147,3.068-0.541,4.641-0.834c3.013-3.01,3.013-3.01,5.113-3.461c0.539-2.061,1.077-4.121,1.635-6.263
		c-0.532-0.768-0.987-2.199-1.735-2.372c-2.724-0.628-4.021-3.137-6.572-4.217c2.965-3.925,5.825-7.714,8.691-11.513l12.269-0.541
		c0.752,0.388,1.514,0.779,2.359,1.215c1.781,0.38,4.188-0.782,5.95,0.479c1.106-0.194,1.966-0.472,2.825-0.478
		c6.461-0.036,12.917-0.016,19.379-0.034c0.229,0,0.455-0.21,0.49-0.228C208.856,104.831,208.588,103.874,208.274,102.775z
		 M195.079,104.338c-1.185,0-2.379,0-3.644,0c-0.091-0.442-0.168-0.816-0.305-1.483c-0.531-0.03-1.169-0.066-1.884-0.109
		c-0.947-2.4-3.029-3.744-5.184-4.969c-0.192-1.193-0.371-2.312-0.647-4.029c0.786-0.646,1.38-1.404,2.479-1.826
		c1.537-0.591,2.789-1.922,4.422-3.124c1.538,0,3.44,0,4.867,0c2.607,1.628,4.888,3.054,7.482,4.675c0,0.984,0,2.456,0,4.107
		C200.316,99.793,196.41,100.612,195.079,104.338z M104.022,97.626c0-1.343,0-2.811,0-4.219c2.314-1.412,4.717-2.878,7.587-4.628
		c1.26,0,3.169,0,4.611,0c2.696,1.854,5.061,3.48,7.138,4.909c-0.289,1.513-0.524,2.736-0.768,4.013
		c-1.791,1.583-4.571,2.231-4.931,5.092c-0.794,0-1.337,0-1.96,0c-0.164,0.469-0.329,0.945-0.532,1.527c-1.153,0-2.348,0-3.56,0
		C110.261,101.797,110.261,101.797,104.022,97.626z M156.367,93.25l-0.708,8.458c-0.915,3.581-1.034,6.963-0.205,10.245
		c0.223,0.878,0.498,1.75,0.86,2.616c-0.219,1.089-0.439,2.194-0.616,3.065c1.883,2.924,4.477,4.371,7.636,5.165
		c-0.385,1.761-0.742,3.394-1.178,5.381c-0.337,0.044-0.962,0.125-1.566,0.205c-1.951,1.579-3.912,3.164-6.163,4.984
		c-0.756-0.144-1.842-0.157-2.741-0.57c-1.047-0.481-1.978-1.261-2.874-2.011c-0.839-0.703-1.567-1.539-2.385-2.356
		c-0.606-0.066-1.255-0.137-1.86-0.202c-0.126-0.151-0.272-0.243-0.289-0.356c-0.286-1.654-0.554-3.312-0.826-4.966
		c2.681-1.221,5.406-2.246,7.288-4.885c0.033-0.948,0.615-2.168-0.522-3.12c0.401-0.915,0.707-1.833,0.95-2.755
		c0.888-3.364,0.778-6.804-0.153-10.445c1.011-0.975,0.787-2.524,0.628-3.939c-0.157-1.38-0.708-2.714-1.208-4.507
		c-0.551,0.668-0.912,1.054-1.214,1.483c-0.788,1.121-0.777,1.128-2.517,1.434c-1.308,1.145-2.332,2.043-3.436,3.01
		c0.269,0.894,0.513,1.714,0.79,2.637c-3.061,0-6.182,0-9.368,0c0.154-0.659,0.322-1.373,0.492-2.098
		c0.045-0.191,0.089-0.378,0.134-0.572c-1.08-1.01-2.079-1.947-3.172-2.971c-0.372,0-0.92,0-1.583,0
		c-0.422-1.446-0.852-2.915-1.323-4.528c2.313-1.302,4.265-3.004,6.786-3.721c2.003-3.014,4.591-1.074,7.063-0.743
		c1.608,1.578,3.024,2.592,4.652,3.265c0.846,0.35,1.743,0.612,2.762,0.802c0.289-0.366,0.627-0.794,1.11-1.407
		c0-0.744,0-1.502,0-2.253c0-5.178,0-10.514,0-15.73c-0.721-1.349-1.816-1.263-2.93-1.26c-6.585,0.021-13.168,0.011-20.087,0.011
		c0.26-1.998-0.729-4.04,1.139-5.719c6.86,0,13.718,0,20.528,0c1.698-1.923,1.698-1.923,0.285-4.175
		c-5.17,0-10.505-0.192-15.82,0.063c-3.943,0.188-7.737-0.791-11.618-0.871c-3.833-0.08-7.669-0.017-11.662-0.017
		c0-0.739,0-1.382,0-2.206c0.354-0.401,63.126-0.652,80.958-0.211c0.808,0.021,1.521,0.042,2.135,0.064
		c0.258,0.009,0.501,0.019,0.721,0.029c0,0.642,0,1.289,0,2.323c-0.6,0-1.215,0.013-1.834,0.027
		c-1.408,0.035-2.854,0.062-4.293-0.029c-0.203-0.013-0.407-0.014-0.609-0.033l-16.153,0.908
		c-5.352-0.222-10.718-0.048-16.079-0.048c-1.588,1.934-1.588,1.934-0.155,4.081c6.871,0,13.839,0,20.662,0
		c0.438,0.438,0.729,0.728,1.149,1.149c0,0.688,0,1.417,0,2.202c0,0.735,0,1.52,0,2.375c-1.069,0-2.143,0-3.216,0
		c-6.188,0-12.409,0-18.417,0c-0.583,0.583-0.875,0.875-1.246,1.245c0,4.428,0,8.896,0,13.27c0,1.617,0,3.223,0,4.807
		c0.484,0.612,0.821,1.04,1.11,1.405c2.98-0.555,4.971-1.669,7.415-4.066c2.471-0.329,5.06-2.271,7.063,0.743
		c0.136,0,0.302-0.051,0.407,0.008c2.117,1.18,4.227,2.373,6.395,3.595c-0.464,1.617-0.854,2.976-1.303,4.556
		c-0.354,0.031-0.87,0.078-0.978,0.087c-1.24,1.228-2.286,2.265-3.676,3.643c0.05,0.179,0.287,1.016,0.554,1.967
		c-3.053,0-6.271,0-9.424,0c0.266-0.888,0.512-1.708,0.794-2.653c-1.621-1-2.184-3.131-4.619-3.088
		C158.111,96.058,157.393,94.481,156.367,93.25z"/>
	<path fill="#FFFFFF" d="M185.689,117.776c-2.625-2.191-6.468-0.703-9.217-0.969c-1.511,1.006-2.532,1.87-3.702,2.43
		c-2.234,1.069-3.804,2.654-4.522,4.804c0.562,1.729,0.94,3.358,1.626,4.846c0.469,1.018,1.289,2.53,2.082,2.618
		c2.338,0.254,3.893,2.1,5.976,2.517c1.606,0.322,3.312,1.945,5.11,0.136c0.34-0.344,1.322-0.049,1.929-0.049
		c2.123-1.395,3.043-4.351,6.176-4.267c0.597-1.994,1.18-3.943,1.726-5.776C191.89,120.34,188.099,119.787,185.689,117.776z
		 M189.547,127.765c-2.081,1.495-4.184,3.004-6.472,4.647c-0.452,0.103-1.194,0.269-2.366,0.531
		c-2.017-0.524-4.307-1.429-6.116-3.442c-0.579-0.642-1.862-0.65-2.744-0.922c-0.525-2.255-0.904-3.885-1.246-5.35
		c2.498-1.587,4.874-3.098,7.511-4.771c1.534,0,3.445,0,4.751,0c2.643,1.882,4.872,3.471,7.476,5.324
		C191.264,125.008,189.994,126.371,189.547,127.765z"/>
	<path fill="#FFFFFF" d="M130.793,116.959c-3.099,0-6.009-0.605-8.492,0.165c-2.609,0.812-4.878,2.846-7.143,4.548
		c-0.736,0.553-0.992,1.745-1.324,2.374c0.61,2.089,1.144,3.917,1.52,5.205c2.122,1.446,3.834,2.614,5.64,3.844
		c1.188,0.306,2.543,0.819,3.935,0.971c1.626,0.178,3.285,0.042,5.208,0.042c1.47-1.247,3.09-2.622,5.004-4.245
		c0.274,0,0.917,0,1.366,0c0.704-2.121,1.346-4.056,1.896-5.711C137.405,119.685,132.484,119.867,130.793,116.959z M133.044,128.39
		c-2.311,3.031-5.337,4.985-9.73,3.861c-1.774-1.312-3.757-2.775-6.31-4.662c-0.209-0.753-0.621-2.231-0.995-3.578
		c2.812-1.993,5.051-3.58,7.769-5.505c1.235,0,3.138,0,4.879,0c2.474,1.566,4.862,3.08,7.402,4.688
		c-0.317,1.422-0.682,3.062-1.124,5.038C134.563,128.263,133.926,128.316,133.044,128.39z"/>
	<path fill="#FFFFFF" d="M167.306,91.637c0.994,0.02,1.983,0.365,2.748,0.523c1.946-1.406,1.715-2.781,0.422-4.326
		c-1.885,0.291-3.95,0.501-5.945,0.988c-0.599,0.145-1.007,1.066-1.664,1.815c0.705,0.572,1.212,0.981,1.819,1.475
		C165.484,91.955,166.399,91.619,167.306,91.637z"/>
	<path fill="#FFFFFF" d="M136.392,87.798c-0.88,1.015-1.553,1.791-2.335,2.695c0.533,0.943,0.971,1.715,1.41,2.492
		c1.444-0.415,2.725,0.211,4.112-0.575c0.789-0.448,2.308,0.391,3.191,0.585c0.727-0.636,1.137-0.993,1.776-1.55
		c-0.396-0.908-0.803-1.836-1.047-2.399C140.841,88.579,138.648,88.194,136.392,87.798z"/>
	<path fill="#FFFFFF" d="M189.136,91.315c-1.472,1.267-1.747,2.484,0.27,4.155c1.036-0.184,2.235-0.576,3.432-0.562
		c1.273,0.016,2.546,0.413,4.058,0.687c0.474-1.129,0.863-2.061,1.217-2.909c-0.625-0.595-1.018-0.972-1.437-1.372
		C194.155,91.315,191.596,91.315,189.136,91.315z"/>
	<path fill="#FFFFFF" d="M118.942,93.889c-0.34-0.826-0.725-1.76-1.058-2.57c-2.895,0-5.455,0-7.953,0
		c-1.41,2.078-1.41,2.078,0.254,4.179c1.121-0.68,2.431,0.309,3.825-0.6c0.725-0.472,2.301,0.365,3.322,0.577
		C117.933,94.884,118.323,94.5,118.942,93.889z"/>
	<path fill="#FFFFFF" d="M178.028,120.11c-0.962,0.791-1.782,1.465-2.83,2.326c0.571,1.023,1.052,1.885,1.432,2.562
		c2.811,0,5.258,0,8.021,0c0.354-0.854,0.739-1.788,1.084-2.618c-0.911-0.897-1.59-1.567-2.303-2.27
		C181.567,120.11,179.66,120.11,178.028,120.11z"/>
	<path fill="#FFFFFF" d="M129.036,120.102c-1.979,0-3.898,0-5.641,0c-1.093,1.025-2.09,1.961-3.024,2.839
		c-0.186,1.451,0.206,2.474,1.839,3.002c2.556-1.367,5.349-1.211,7.929,0.002c1.54-0.61,2.005-1.599,1.769-2.88
		C130.908,122.033,129.954,121.05,129.036,120.102z"/>
</g>
<path fill="none" stroke="#FFFFFF" stroke-width="3" stroke-miterlimit="10" d="M152.258,320.834H63.567l-21.235-7.407V258.61
	l31.112-69.14c0,0,0.494-13.826,0-24.197c-8.889-4.939-4.939-39.014-2.963-52.348C72.457,99.098,95.172,48.726,97.72,42.8
	c0.572-6.42,3.378-11.358,8.354-22.716c20.284-48.396,46.184-46.915,46.184-46.915h-0.293c0,0,25.899-1.481,46.185,46.915
	c4.976,11.358,7.782,16.296,8.354,22.716c2.548,5.926,25.262,56.298,27.239,70.125c1.976,13.334,5.926,47.409-2.964,52.348
	c-0.493,10.371,0,24.197,0,24.197l31.112,69.139v54.815l-21.234,7.408h-88.691L152.258,320.834z"/>
<polygon fill="none" stroke="#FFFFFF" stroke-miterlimit="10" points="112.628,41.413 189.126,41.413 196.21,48.497 199.525,48.497 
	217.459,106.106 204.237,140.579 102.239,140.579 88.072,106.579 102.239,48.024 107.905,48.024 "/>
</svg>
