<?xml version="1.0" encoding="utf-8"?>
<!-- Generator: Adobe Illustrator 16.0.0, SVG Export Plug-In . SVG Version: 6.00 Build 0)  -->
<!DOCTYPE svg PUBLIC "-//W3C//DTD SVG 1.1//EN" "http://www.w3.org/Graphics/SVG/1.1/DTD/svg11.dtd">
<svg version="1.1" id="Layer_1" xmlns="http://www.w3.org/2000/svg" xmlns:xlink="http://www.w3.org/1999/xlink" x="0px" y="0px"
	 width="300px" height="500px" viewBox="0 0 300 500" enable-background="new 0 0 300 500" xml:space="preserve">
<g>
	<path fill="none" stroke="#FFFFFF" stroke-width="1.277" stroke-miterlimit="10" d="M168.667,50.474h-42.458
		c-1.931,0-3.501,1.568-3.501,3.505v128.479c0,1.938,1.57,3.509,3.501,3.509h42.458c1.945,0,3.515-1.572,3.515-3.509V53.979
		C172.182,52.042,170.612,50.474,168.667,50.474z M169.393,199.779H125.49c-1.535,0-2.783,1.246-2.783,2.791v80
		c0,1.537,1.249,2.788,2.783,2.788h43.902c1.538,0,2.789-1.251,2.789-2.788v-80C172.182,201.025,170.931,199.779,169.393,199.779z
		 M128.944,50.474h36.993"/>
</g>
<line fill="none" stroke="#FFFFFF" stroke-width="1.277" stroke-miterlimit="10" x1="128.387" y1="185.676" x2="128.387" y2="200.185"/>
<line fill="none" stroke="#FFFFFF" stroke-width="1.277" stroke-miterlimit="10" x1="165.878" y1="185.676" x2="165.878" y2="200.185"/>
<path fill="none" stroke="#FFFFFF" stroke-width="1.277" stroke-miterlimit="10" d="M168.667,285.358h-42.458
	c-1.931,0-3.501,1.567-3.501,3.505v128.479c0,1.938,1.57,3.509,3.501,3.509h42.458c1.945,0,3.515-1.571,3.515-3.509V288.863
	C172.182,286.926,170.612,285.358,168.667,285.358z"/>
<line fill="none" stroke="#FFFFFF" stroke-width="1.277" stroke-miterlimit="10" x1="128.944" y1="285.358" x2="165.937" y2="285.358"/>
<polygon fill="none" stroke="#FFFFFF" stroke-miterlimit="10" points="172.5,357.297 216.008,438.5 219.5,438.5 219.5,449.5 
	212.105,449.5 172.5,412.745 172.5,397.218 192.764,415.178 172.5,375.337 "/>
<polygon fill="none" stroke="#FFFFFF" stroke-miterlimit="10" points="122.5,357.297 84.249,438.5 80.5,438.5 80.5,449.5 
	87.68,449.5 122.5,412.745 122.5,397.218 104.685,415.178 122.5,375.337 "/>
<g>
	<g>
		<path fill="none" stroke="#FFFFFF" stroke-width="1.277" stroke-miterlimit="10" d="M108.968,357.297
			c0,0-85.016,10.083-88.321,70.648"/>
		<g>
			<path fill="#FFFFFF" d="M15.235,418.792c0.31-0.167,0.698-0.05,0.864,0.262l4.618,8.608l5.849-7.824
				c0.211-0.282,0.612-0.342,0.894-0.13c0.282,0.211,0.338,0.614,0.129,0.895l-6.449,8.627c-0.13,0.175-0.341,0.271-0.559,0.255
				s-0.412-0.144-0.515-0.335l-5.091-9.492c-0.059-0.111-0.083-0.232-0.074-0.35C14.916,419.098,15.036,418.899,15.235,418.792z"/>
		</g>
	</g>
</g>
</svg>
