<?xml version="1.0" encoding="utf-8"?>
<!-- Generator: Adobe Illustrator 16.0.0, SVG Export Plug-In . SVG Version: 6.00 Build 0)  -->
<!DOCTYPE svg PUBLIC "-//W3C//DTD SVG 1.1//EN" "http://www.w3.org/Graphics/SVG/1.1/DTD/svg11.dtd">
<svg version="1.1" id="Layer_1" xmlns="http://www.w3.org/2000/svg" xmlns:xlink="http://www.w3.org/1999/xlink" x="0px" y="0px"
	 width="300px" height="300px" viewBox="0 0 300 300" enable-background="new 0 0 300 300" xml:space="preserve">
<path fill="none" stroke="#FFFFFF" stroke-width="3" d="M172.446,89.403c15.626,1.919,29.846-9.194,31.769-24.818
	c1.915-15.627-9.196-29.851-24.824-31.768c-15.622-1.919-29.846,9.194-31.764,24.819C145.706,73.263,156.817,87.486,172.446,89.403z
	"/>
<circle fill="none" stroke="#FFFFFF" stroke-width="3" cx="110.865" cy="65.644" r="27.036"/>
<path fill="none" stroke="#FFFFFF" stroke-width="3" d="M222.521,132.222c14.821,1.82,28.31-8.719,30.129-23.538
	c1.821-14.821-8.719-28.311-23.54-30.129c-14.819-1.82-28.309,8.719-30.127,23.538C197.161,116.914,207.701,130.404,222.521,132.222
	z"/>
<path fill="none" stroke="#FFFFFF" stroke-width="3" d="M231.532,201.885c14.822,1.82,28.309-8.719,30.131-23.538
	c1.818-14.82-8.722-28.311-23.542-30.128c-14.817-1.82-28.307,8.719-30.127,23.538C206.174,186.577,216.711,200.067,231.532,201.885
	z"/>
<path fill="none" stroke="#FFFFFF" stroke-width="3" d="M63.977,210.025c14.821,1.821,28.309-8.719,30.13-23.538
	c1.82-14.82-8.719-28.31-23.54-30.128c-14.819-1.82-28.309,8.719-30.127,23.537C38.617,194.719,49.156,208.208,63.977,210.025z"/>
<circle fill="none" stroke="#FFFFFF" stroke-width="3" cx="65.558" cy="113.331" r="27.035"/>
<path fill="none" stroke="#FFFFFF" stroke-width="3" d="M185.42,254.795c14.821,1.82,28.307-8.72,30.129-23.538
	c1.817-14.822-8.722-28.311-23.542-30.129c-14.817-1.819-28.308,8.72-30.128,23.537C160.06,239.486,170.598,252.977,185.42,254.795z
	"/>
<circle fill="none" stroke="#FFFFFF" stroke-width="3" cx="118.045" cy="227.038" r="27.035"/>
<path fill="none" stroke="#FFFFFF" stroke-width="3" d="M146.932,166.401c14.82,1.817,28.31-8.72,30.13-23.538
	c1.821-14.821-8.72-28.311-23.54-30.131c-14.82-1.818-28.31,8.722-30.129,23.539C121.573,151.091,132.111,164.581,146.932,166.401z"
	/>
<circle fill="none" stroke="#FFFFFF" stroke-width="3" cx="149.963" cy="147.877" r="142.051"/>
<path fill="none" stroke="#FFFFFF" stroke-width="3" d="M134.368,274.891c70.082,8.604,133.869-41.229,142.475-111.311
	c8.603-70.082-41.234-133.869-111.314-142.472C95.45,12.502,31.662,62.338,23.057,132.418
	C14.452,202.498,64.288,266.286,134.368,274.891z"/>
<polyline fill="none" stroke="#FFFFFF" stroke-width="3" points="56.428,40.973 47.426,25.408 14.2,66.965 18.48,91.185 "/>
<g>
	<polyline fill="none" stroke="#FFFFFF" stroke-width="3" points="252.735,245.951 250.716,267.426 218.422,291.192 
		189.921,284.033 	"/>
</g>
<polyline fill="none" stroke="#FFFFFF" stroke-width="3" points="239.914,37.563 251.701,29.365 270.318,47.08 261.379,59.764 "/>
</svg>
