<?xml version="1.0" encoding="utf-8"?>
<!-- Generator: Adobe Illustrator 16.0.0, SVG Export Plug-In . SVG Version: 6.00 Build 0)  -->
<!DOCTYPE svg PUBLIC "-//W3C//DTD SVG 1.1//EN" "http://www.w3.org/Graphics/SVG/1.1/DTD/svg11.dtd">
<svg version="1.1" id="Layer_1" xmlns="http://www.w3.org/2000/svg" xmlns:xlink="http://www.w3.org/1999/xlink" x="0px" y="0px"
	 width="1351.479px" height="616.44px" viewBox="0 0 1351.479 616.44" enable-background="new 0 0 1351.479 616.44"
	 xml:space="preserve">
<polyline fill="none" stroke="#FFFFFF" stroke-width="2" stroke-miterlimit="10" stroke-dasharray="5" points="721.099,214.405 
	846.088,182.845 1100.97,139.247 1343.518,116.235 "/>
<g>
	<g>
		
			<line fill="none" stroke="#FFFFFF" stroke-width="2" stroke-miterlimit="10" x1="543.355" y1="265.316" x2="545.815" y2="264.872"/>
		<polyline fill="none" stroke="#FFFFFF" stroke-width="2" stroke-miterlimit="10" stroke-dasharray="4.9926,4.9926" points="
			550.728,263.984 684.771,239.768 873.511,233.712 998.532,275.495 1075.158,367.538 1109.841,447.471 1155.816,523.164 
			1268.738,590.986 1283.961,607.009 		"/>
		
			<line fill="none" stroke="#FFFFFF" stroke-width="2" stroke-miterlimit="10" x1="1285.681" y1="608.818" x2="1287.402" y2="610.631"/>
	</g>
</g>
<ellipse fill="#FFFFFF" cx="869.852" cy="233.714" rx="4.289" ry="3.426"/>
<ellipse fill="#FFFFFF" cx="996.852" cy="274.335" rx="4.289" ry="3.427"/>
<ellipse fill="#FFFFFF" cx="1074.852" cy="367.426" rx="4.289" ry="3.426"/>
<ellipse fill="#FFFFFF" cx="1155.852" cy="523.141" rx="4.289" ry="3.427"/>
<ellipse fill="#FFFFFF" cx="860.852" cy="179.552" rx="4.289" ry="3.426"/>
<ellipse fill="#FFFFFF" cx="1102.852" cy="138.931" rx="4.289" ry="3.427"/>
<path opacity="0.4" fill="#F19120" d="M874.725-126.148c0,5.993-6.079,10.85-13.582,10.85c-7.496,0-13.58-4.857-13.58-10.85
	c0-5.992,6.084-10.849,13.58-10.849C868.646-136.997,874.725-132.14,874.725-126.148z"/>
<ellipse fill="#F19120" cx="858.033" cy="-122.958" rx="7.47" ry="5.968"/>
<line fill="none" stroke="#F19120" stroke-width="2" stroke-miterlimit="10" x1="23" y1="610.631" x2="62" y2="610.631"/>
<line fill="none" stroke="#FFFFFF" stroke-width="2" stroke-miterlimit="10" x1="62" y1="610.631" x2="1307" y2="610.631"/>
<polyline fill="none" stroke="#F19120" stroke-width="2" stroke-miterlimit="10" points="712.585,216.603 666.311,228.262 
	432.355,298.808 213.746,389.943 113.906,456.554 55,523.164 43,610.631 "/>
<ellipse fill="#F19120" cx="215.852" cy="389.429" rx="4.289" ry="3.427"/>
<ellipse fill="#F19120" cx="426.852" cy="300.57" rx="4.289" ry="3.426"/>
</svg>
