<?xml version="1.0" encoding="utf-8"?>
<!-- Generator: Adobe Illustrator 16.0.0, SVG Export Plug-In . SVG Version: 6.00 Build 0)  -->
<!DOCTYPE svg PUBLIC "-//W3C//DTD SVG 1.1//EN" "http://www.w3.org/Graphics/SVG/1.1/DTD/svg11.dtd">
<svg version="1.1" id="Layer_1" xmlns="http://www.w3.org/2000/svg" xmlns:xlink="http://www.w3.org/1999/xlink" x="0px" y="0px"
	 width="300px" height="500px" viewBox="0 0 300 500" enable-background="new 0 0 300 500" xml:space="preserve">
<path fill="none" stroke="#FFFFFF" stroke-width="2" stroke-miterlimit="10" d="M173.798,283.476h-47.611
	c-2.166,0-3.927,1.758-3.927,3.935v144.088c0,2.171,1.761,3.93,3.927,3.93h47.611c2.183,0,3.942-1.759,3.942-3.93V287.41
	C177.74,285.233,175.98,283.476,173.798,283.476z"/>
<rect x="129.254" y="152.019" fill="none" stroke="#FFFFFF" stroke-width="2" stroke-miterlimit="10" width="41.483" height="131.457"/>
<polyline fill="none" stroke="#FFFFFF" stroke-width="2" stroke-miterlimit="10" points="171.053,151.743 176.639,131.248 
	123.358,131.248 128.94,151.743 "/>
<path fill="none" stroke="#FFFFFF" stroke-width="2" stroke-miterlimit="10" d="M176.313,98.752l-20.041-59.806
	c-1.997-5.963-10.426-5.963-12.42,0l-20.035,59.806v32.489h52.496V98.752z"/>
</svg>
