<?xml version="1.0" encoding="utf-8"?>
<!-- Generator: Adobe Illustrator 16.0.0, SVG Export Plug-In . SVG Version: 6.00 Build 0)  -->
<!DOCTYPE svg PUBLIC "-//W3C//DTD SVG 1.1//EN" "http://www.w3.org/Graphics/SVG/1.1/DTD/svg11.dtd">
<svg version="1.1" id="Layer_1" xmlns="http://www.w3.org/2000/svg" xmlns:xlink="http://www.w3.org/1999/xlink" x="0px" y="0px"
	 width="81.958px" height="300px" viewBox="0 0 81.958 300" enable-background="new 0 0 81.958 300" xml:space="preserve">
<g>
	<path fill="none" stroke="#FFFFFF" stroke-width="1.277" stroke-miterlimit="10" d="M40.877,235.885
		c-2.652,0-4.804,2.15-4.804,4.802v1.191h9.608v-1.191C45.681,238.035,43.53,235.885,40.877,235.885z M54.944,235.885
		c-2.651,0-4.802,2.15-4.802,4.802v1.191h9.604v-1.191C59.747,238.035,57.595,235.885,54.944,235.885z M53.007,164.378l-4.776,9.21
		v62.075h6.713h6.715v-62.075l-4.777-9.21C56.032,162.74,53.857,162.74,53.007,164.378z M27.042,235.885
		c-2.654,0-4.803,2.15-4.803,4.802v1.191h9.607v-1.191C31.846,238.035,29.695,235.885,27.042,235.885z M25.105,164.378l-4.776,9.21
		v62.075h6.713h6.713v-62.075l-4.776-9.21C28.13,162.74,25.954,162.74,25.105,164.378z M48.698,82.369H33.054
		c-0.711,0-1.29,0.578-1.29,1.292v47.338c0,0.713,0.579,1.292,1.29,1.292h15.644c0.716,0,1.295-0.579,1.295-1.292V83.661
		C49.993,82.947,49.414,82.369,48.698,82.369z M48.965,137.38H32.789c-0.565,0-1.025,0.459-1.025,1.028v29.476
		c0,0.566,0.46,1.027,1.025,1.027h16.176c0.566,0,1.027-0.461,1.027-1.027v-29.476C49.993,137.839,49.532,137.38,48.965,137.38z
		 M49.5,32.448H32.256l1.806,6.733h13.63L49.5,32.448z M49.5,21.774L42.917,2.125c-0.655-1.959-3.425-1.959-4.08,0l-6.582,19.649
		v10.673H49.5V21.774z M47.692,39.181h-13.63v43.188h13.63V39.181z"/>
</g>
<line fill="none" stroke="#FFFFFF" stroke-width="1.277" stroke-miterlimit="10" x1="33.856" y1="132.184" x2="33.856" y2="137.529"/>
<line fill="none" stroke="#FFFFFF" stroke-width="1.277" stroke-miterlimit="10" x1="47.67" y1="132.184" x2="47.67" y2="137.529"/>
<g>
	<defs>
		<path id="SVGID_1_" d="M32.109,261.821l10.419-16.347l8.478,27.011L32.109,261.821z M31.302,262.021L31.302,262.021l20.686,11.676
			l-9.281-29.565L31.302,262.021z"/>
	</defs>
	<clipPath id="SVGID_2_">
		<use xlink:href="#SVGID_1_"  overflow="visible"/>
	</clipPath>
	<g clip-path="url(#SVGID_2_)">
		<g>
			<defs>
				
					<rect id="SVGID_3_" x="24.754" y="240.872" transform="matrix(0.8248 0.5655 -0.5655 0.8248 153.7065 21.8219)" width="33.78" height="36.083"/>
			</defs>
			<clipPath id="SVGID_4_">
				<use xlink:href="#SVGID_3_"  overflow="visible"/>
			</clipPath>
			<g clip-path="url(#SVGID_4_)">
				
					<image overflow="visible" width="202" height="204" xlink:href="82404E3C421A2010.jpg"  transform="matrix(0.24 0 0 0.24 17.5122 234.4824)">
				</image>
			</g>
		</g>
	</g>
</g>
<g>
	<defs>
		<path id="SVGID_5_" d="M26.755,282.611l24.422-9.094l-1.896,24.143L26.755,282.611z M25.508,282.468l24.268,16.211l2.043-26.013
			L25.508,282.468z"/>
	</defs>
	<clipPath id="SVGID_6_">
		<use xlink:href="#SVGID_5_"  overflow="visible"/>
	</clipPath>
	<g clip-path="url(#SVGID_6_)">
		<g>
			<defs>
				
					<rect id="SVGID_7_" x="21.86" y="268.958" transform="matrix(0.94 0.3411 -0.3411 0.94 99.7652 3.9458)" width="33.604" height="33.427"/>
			</defs>
			<clipPath id="SVGID_8_">
				<use xlink:href="#SVGID_7_"  overflow="visible"/>
			</clipPath>
			<g clip-path="url(#SVGID_8_)">
				
					<image overflow="visible" width="180" height="179" xlink:href="82404E3C421A2030.jpg"  transform="matrix(0.24 0 0 0.24 17.1665 264.2295)">
				</image>
			</g>
		</g>
	</g>
</g>
<g>
	<defs>
		<path id="SVGID_9_" d="M43,245.07l26.624-1.383l-18.04,28.728L43,245.07z M42.233,244.535l9.178,29.232l19.12-30.443l-0.078-0.141
			l-0.062-0.108L42.233,244.535z"/>
	</defs>
	<clipPath id="SVGID_10_">
		<use xlink:href="#SVGID_9_"  overflow="visible"/>
	</clipPath>
	<g clip-path="url(#SVGID_10_)">
		<g>
			<defs>
				
					<rect id="SVGID_11_" x="37.793" y="239.124" transform="matrix(0.9381 0.3464 -0.3464 0.9381 93.0102 -3.5307)" width="37.178" height="38.596"/>
			</defs>
			<clipPath id="SVGID_12_">
				<use xlink:href="#SVGID_11_"  overflow="visible"/>
			</clipPath>
			<g clip-path="url(#SVGID_12_)">
				
					<image overflow="visible" width="202" height="205" xlink:href="82404E3C421A2033.jpg"  transform="matrix(0.24 0 0 0.24 32.2588 233.8789)">
				</image>
			</g>
		</g>
	</g>
</g>
<line fill="none" stroke="#FFFFFF" stroke-miterlimit="10" x1="33.711" y1="233.5" x2="48.711" y2="233.5"/>
<g>
	<defs>
		<polygon id="SVGID_13_" points="51.988,273.279 51.988,273.279 75.282,272.363 70.652,243.561 		"/>
	</defs>
	<clipPath id="SVGID_14_">
		<use xlink:href="#SVGID_13_"  overflow="visible"/>
	</clipPath>
	<g clip-path="url(#SVGID_14_)">
		<g>
			<defs>
				<polygon id="SVGID_15_" points="81.814,245.765 53.714,236.285 45.454,271.075 73.553,280.555 				"/>
			</defs>
			<clipPath id="SVGID_16_">
				<use xlink:href="#SVGID_15_"  overflow="visible"/>
			</clipPath>
			<g clip-path="url(#SVGID_16_)">
				
					<image overflow="visible" width="152" height="185" xlink:href="82404E3C421A2036.jpg"  transform="matrix(0.24 0 0 0.24 45.4536 236.2852)">
				</image>
			</g>
		</g>
	</g>
</g>
<g>
	<defs>
		<polygon id="SVGID_17_" points="10.336,260.125 31.423,261.892 34.524,246 		"/>
	</defs>
	<use xlink:href="#SVGID_17_"  overflow="visible" fill="#F6951E"/>
	<clipPath id="SVGID_18_">
		<use xlink:href="#SVGID_17_"  overflow="visible"/>
	</clipPath>
	<use xlink:href="#SVGID_17_"  overflow="visible" fill="none" stroke="#F6941E" stroke-miterlimit="10"/>
</g>
<g>
	<defs>
		<polygon id="SVGID_19_" points="35.086,245.312 31.491,262.604 42.527,244.956 42.527,244.954 		"/>
	</defs>
	<clipPath id="SVGID_20_">
		<use xlink:href="#SVGID_19_"  overflow="visible"/>
	</clipPath>
	<use xlink:href="#SVGID_19_"  overflow="visible" fill="none" stroke="#F6941E" stroke-width="0.5" stroke-miterlimit="10"/>
</g>
<line fill="none" x1="36.463" y1="271.812" x2="35.539" y2="256.519"/>
<g>
	<defs>
		<path id="SVGID_21_" d="M7.94,244.831l27.146,0.481L8.864,260.125L7.94,244.831z"/>
	</defs>
	<clipPath id="SVGID_22_">
		<use xlink:href="#SVGID_21_"  overflow="visible"/>
	</clipPath>
	<use xlink:href="#SVGID_21_"  overflow="visible" fill="none" stroke="#F6951E" stroke-miterlimit="10"/>
</g>
<polygon fill="none" stroke="#F6941E" stroke-miterlimit="10" points="8.399,260.438 31.491,262.128 26.024,282.812 "/>
<polygon fill="none" stroke="#F6941E" stroke-miterlimit="10" points="26.774,283.062 31.206,261.733 51.248,273.279 "/>
<polygon fill="none" stroke="#F6951E" stroke-miterlimit="10" points="26.086,283.625 51.594,273.476 49.361,298.401 "/>
<polyline fill="none" stroke="#F6951E" stroke-miterlimit="10" points="31.491,261.897 42.527,244.956 51.594,273.279 
	31.423,261.892 "/>
<polygon fill="none" stroke="#F6951E" stroke-miterlimit="10" points="42.326,244.831 70.2,243.085 51.649,272.75 "/>
<polygon fill="#F6951E" stroke="#F6951E" stroke-miterlimit="10" points="75.282,272.363 51.819,274.062 70.2,243.561 "/>
</svg>
