<?xml version="1.0" encoding="utf-8"?>
<!-- Generator: Adobe Illustrator 16.0.0, SVG Export Plug-In . SVG Version: 6.00 Build 0)  -->
<!DOCTYPE svg PUBLIC "-//W3C//DTD SVG 1.1//EN" "http://www.w3.org/Graphics/SVG/1.1/DTD/svg11.dtd">
<svg version="1.1" id="Layer_1" xmlns="http://www.w3.org/2000/svg" xmlns:xlink="http://www.w3.org/1999/xlink" x="0px" y="0px"
	 width="81.958px" height="94.438px" viewBox="0 132.184 81.958 94.438" enable-background="new 0 132.184 81.958 94.438"
	 xml:space="preserve">
<path fill="none" stroke="#000000" stroke-width="1.277" stroke-miterlimit="10" d="M-90.316,161.055h-15.644
	c-0.711,0-1.29,0.578-1.29,1.293v47.338c0,0.713,0.579,1.291,1.29,1.291h15.644c0.717,0,1.295-0.578,1.295-1.291v-47.338
	C-89.021,161.633-89.6,161.055-90.316,161.055z"/>
<polygon fill="none" stroke="#000000" stroke-width="1.277" stroke-miterlimit="10" points="-89.514,111.134 -106.758,111.134 
	-104.952,117.867 -91.322,117.867 "/>
<path fill="none" stroke="#000000" stroke-width="1.277" stroke-miterlimit="10" d="M-89.514,100.46l-6.584-19.649
	c-0.654-1.959-3.424-1.959-4.08,0l-6.582,19.649v10.673h17.246V100.46z"/>
<rect x="-104.952" y="117.867" fill="none" stroke="#000000" stroke-width="1.277" stroke-miterlimit="10" width="13.63" height="43.188"/>
<path fill="none" stroke="#FFFFFF" stroke-width="1.277" stroke-miterlimit="10" d="M48.696,176.051H33.053
	c-0.711,0-1.29,0.578-1.29,1.293v47.338c0,0.713,0.579,1.291,1.29,1.291h15.643c0.717,0,1.295-0.578,1.295-1.291v-47.338
	C49.991,176.629,49.413,176.051,48.696,176.051z"/>
<rect x="34.061" y="132.863" fill="none" stroke="#FFFFFF" stroke-width="1.277" stroke-miterlimit="10" width="13.629" height="43.188"/>
</svg>
