<?xml version="1.0" encoding="utf-8"?>
<!-- Generator: Adobe Illustrator 16.0.0, SVG Export Plug-In . SVG Version: 6.00 Build 0)  -->
<!DOCTYPE svg PUBLIC "-//W3C//DTD SVG 1.1//EN" "http://www.w3.org/Graphics/SVG/1.1/DTD/svg11.dtd">
<svg version="1.1" id="Layer_1" xmlns="http://www.w3.org/2000/svg" xmlns:xlink="http://www.w3.org/1999/xlink" x="0px" y="0px"
	 width="81.958px" height="111.548px" viewBox="0 132.184 81.958 111.548" enable-background="new 0 132.184 81.958 111.548"
	 xml:space="preserve">
<g>
	<path fill="none" stroke="#FFFFFF" stroke-width="1.277" stroke-miterlimit="10" d="M40.877,236.812
		c-2.652,0-4.804,2.15-4.804,4.803v1.19h9.608v-1.19C45.681,238.962,43.53,236.812,40.877,236.812z M54.944,236.812
		c-2.65,0-4.802,2.15-4.802,4.803v1.19h9.604v-1.19C59.747,238.962,57.595,236.812,54.944,236.812z M53.006,165.305l-4.775,9.21
		v62.075h6.713h6.715v-62.075l-4.777-9.21C56.032,163.667,53.857,163.667,53.006,165.305z M27.042,236.812
		c-2.654,0-4.803,2.15-4.803,4.803v1.19h9.607v-1.19C31.846,238.962,29.695,236.812,27.042,236.812z M25.105,165.305l-4.776,9.21
		v62.075h6.713h6.713v-62.075l-4.776-9.21C28.13,163.667,25.954,163.667,25.105,165.305z M48.965,138.307H32.789
		c-0.565,0-1.025,0.459-1.025,1.028v29.476c0,0.566,0.46,1.027,1.025,1.027h16.176c0.566,0,1.027-0.461,1.027-1.027v-29.476
		C49.993,138.766,49.532,138.307,48.965,138.307z"/>
</g>
<polyline fill="none" stroke="#FFFFFF" stroke-width="1.277" stroke-miterlimit="10" points="47.67,138.456 47.67,133.111 
	33.856,133.111 33.856,138.456 "/>
<line fill="none" stroke="#FFFFFF" stroke-width="1.277" stroke-miterlimit="10" x1="33.755" y1="234.59" x2="48.231" y2="234.59"/>
<path fill="none" stroke="#000000" stroke-width="1.277" stroke-miterlimit="10" d="M-90.316,161.055h-15.644
	c-0.711,0-1.29,0.578-1.29,1.293v47.338c0,0.713,0.579,1.291,1.29,1.291h15.644c0.717,0,1.295-0.578,1.295-1.291v-47.338
	C-89.021,161.633-89.6,161.055-90.316,161.055z"/>
<polygon fill="none" stroke="#000000" stroke-width="1.277" stroke-miterlimit="10" points="-89.514,111.134 -106.758,111.134 
	-104.952,117.867 -91.322,117.867 "/>
<path fill="none" stroke="#000000" stroke-width="1.277" stroke-miterlimit="10" d="M-89.514,100.46l-6.584-19.649
	c-0.654-1.959-3.424-1.959-4.08,0l-6.582,19.649v10.673h17.246V100.46z"/>
<rect x="-104.952" y="117.867" fill="none" stroke="#000000" stroke-width="1.277" stroke-miterlimit="10" width="13.63" height="43.188"/>
</svg>
