<?xml version="1.0" encoding="utf-8"?>
<!-- Generator: Adobe Illustrator 16.0.0, SVG Export Plug-In . SVG Version: 6.00 Build 0)  -->
<!DOCTYPE svg PUBLIC "-//W3C//DTD SVG 1.1//EN" "http://www.w3.org/Graphics/SVG/1.1/DTD/svg11.dtd">
<svg version="1.1" id="Layer_1" xmlns="http://www.w3.org/2000/svg" xmlns:xlink="http://www.w3.org/1999/xlink" x="0px" y="0px"
	 width="300px" height="100px" viewBox="0 0 300 100" enable-background="new 0 0 300 100" xml:space="preserve">
<g>
	<path fill="#4294CF" d="M16.888,64.75L21,64.623c0.45,4.561,2.185,7.58,5.91,7.58c4.112,0,5.397-3.598,5.397-6.874
		c0-3.085-1.349-6.298-3.918-9.122l-5.655-6.618c-3.082-3.471-5.075-7.068-5.075-11.051c0-5.59,3.084-9.894,9.315-9.894
		c4.948,0,8.609,2.701,9.06,10.15l-3.984,0.128c-0.513-4.691-2.184-6.746-5.267-6.746c-3.148,0-5.14,1.992-5.14,6.039
		c0,2.956,2.056,5.716,4.498,8.545l4.882,5.718c3.47,3.98,5.397,7.773,5.397,12.463c0,6.359-3.406,10.793-9.509,10.793
		C20.936,75.736,17.402,71.881,16.888,64.75"/>
	<path fill="#4294CF" d="M51.255,52.48c4.626,0,6.746-3.535,6.746-10.023c0-5.203-1.542-9.314-6.361-9.314h-4.497V52.48H51.255z
		 M42.775,29.352h9.315c7.452,0,10.149,5.525,10.149,13.105c0,8.288-3.404,13.75-10.601,13.75h-4.497v18.951h-4.367V29.352z"/>
	<path fill="#4294CF" d="M105.825,65.905v-27.11c0-6.104,4.112-10.152,10.664-10.152c6.297,0,9.894,3.92,9.894,8.932v5.203h-3.854
		v-4.432c0-3.533-1.992-5.975-6.104-5.975c-4.562,0-6.233,3.021-6.233,6.619v26.274c0,4.434,2.442,6.619,6.363,6.619
		c3.982,0,5.974-2.57,5.974-5.848v-4.562h3.854v4.82c0,5.59-3.727,9.443-9.828,9.443C110,75.736,105.825,72.203,105.825,65.905"/>
</g>
<polygon fill="#4294CF" points="133.253,29.352 150.405,29.352 150.405,33.013 137.557,33.013 137.557,49.202 147.9,49.202 
	147.9,52.994 137.557,52.994 137.557,71.367 150.469,71.367 150.469,75.158 133.253,75.158 "/>
<polygon fill="#FFFFFF" points="156.954,29.352 161.258,29.352 161.258,71.367 174.173,71.367 174.173,75.158 156.954,75.158 "/>
<path fill="#FFFFFF" d="M194.47,57.041l-4.304-22.808h-0.193l-4.369,22.808H194.47z M187.403,29.223h5.718l9.251,45.933h-4.369
	l-2.825-14.518h-10.281l-2.826,14.518h-4.045L187.403,29.223z"/>
<g>
	<path fill="#FFFFFF" d="M207.124,65.777V29.352h4.365v35.783c0,4.756,2.829,6.811,6.172,6.811c4.237,0,6.035-2.893,5.973-6.68
		V29.352h4.113v35.978c0.062,6.425-4.051,10.47-10.409,10.47C211.489,75.799,207.124,72.588,207.124,65.777"/>
	<path fill="#FFFFFF" d="M234.808,65.905v-27.11c0-6.104,4.111-10.152,10.664-10.152c6.296,0,9.896,3.92,9.896,8.932v5.203h-3.856
		v-4.432c0-3.533-1.99-5.975-6.102-5.975c-4.562,0-6.233,3.021-6.233,6.619v26.274c0,4.434,2.441,6.619,6.362,6.619
		c3.982,0,5.973-2.57,5.973-5.848v-4.562h3.856v4.82c0,5.59-3.729,9.443-9.829,9.443C238.983,75.736,234.808,72.203,234.808,65.905"
		/>
</g>
<polygon fill="#FFFFFF" points="278.874,29.352 278.874,49.589 266.604,49.589 266.604,29.352 262.235,29.352 262.235,75.158 
	266.604,75.158 266.604,53.637 278.874,53.637 278.874,75.158 283.113,75.158 283.113,29.352 "/>
<g>
	<path fill="#4294CF" d="M99.117,74.939l-0.038,0.211c-0.1,0.547-0.211,1.09-0.319,1.631l-13.216-3.984l0.672-3.525l6.019-19.959
		l0.081,3.211c0.137,5.539,1.486,11.107,3.91,16.105c0.622,1.264,1.292,2.473,1.986,3.582c0.112,0.184,0.234,0.371,0.358,0.553
		c0.244,0.361,0.47,0.699,0.59,1.008C99.269,74.047,99.237,74.299,99.117,74.939 M84.62,64.721
		c-0.353-0.254-0.751-0.451-1.187-0.586l-0.648-0.192l-5.218-1.575l-0.647-0.197c-0.438-0.13-0.876-0.182-1.31-0.172l8.771-29.086
		c0.646-2.139,2.497-5.195,4.316-7.384c0.435-0.521,0.865-0.994,1.278-1.394c0.958-0.927,1.817-1.455,2.361-1.293
		c0.35,0.106,0.855,0.831,1.224,2.385c0.127,0.523,0.237,1.143,0.317,1.864c0.032,0.253,0.054,0.521,0.077,0.798
		c0.235,3.093-0.102,6.235-0.558,7.745l-1.297,4.302c-0.005,0.017-0.015,0.031-0.02,0.055L84.62,64.721z M81.601,76.477
		l-10.868-3.096l4.504-9.396l8.287,2.244L81.601,76.477z M57.156,64.238c0.205-0.512,0.413-1.027,0.635-1.537l0.083-0.195
		c0.255-0.602,0.366-0.827,0.613-0.996c0.27-0.196,0.646-0.349,1.044-0.516c0.207-0.084,0.412-0.172,0.604-0.256
		c1.196-0.545,2.423-1.184,3.648-1.896c4.773-2.825,8.975-6.716,12.153-11.26l1.849-2.646l-6.01,19.934l-1.403,3.354L57.156,64.238z
		 M101.8,72.729c-0.235-0.594-0.57-1.098-0.873-1.545c-0.102-0.158-0.207-0.311-0.305-0.471c-0.647-1.035-1.271-2.16-1.848-3.332
		c-2.245-4.621-3.496-9.787-3.624-14.93L94.86,40.608l1.251-4.157c0.629-2.085,0.905-5.692,0.672-8.783
		c-0.34-4.381-1.56-6.918-3.63-7.542c-4.666-1.407-10.433,8.446-11.494,11.97l-1.246,4.129l-6.808,9.73
		c-2.945,4.214-6.842,7.828-11.264,10.437c-1.134,0.662-2.273,1.251-3.393,1.767c-0.164,0.072-0.332,0.143-0.507,0.213
		c-0.497,0.209-1.06,0.441-1.582,0.809c-0.941,0.653-1.305,1.525-1.602,2.224l-0.075,0.179c-0.289,0.666-0.56,1.34-0.832,2.012
		l-0.408,1.013c-0.153,0.374-0.142,0.787,0.028,1.153c0.175,0.36,0.489,0.635,0.874,0.748l14.423,4.35l-1.003,2.402
		c-0.151,0.367-0.146,0.793,0.025,1.156c0.17,0.357,0.486,0.637,0.873,0.752l13.549,4.084c0.386,0.117,0.8,0.062,1.142-0.145
		c0.346-0.207,0.586-0.555,0.66-0.951l0.492-2.555l14.423,4.348c0.385,0.119,0.796,0.062,1.142-0.143
		c0.344-0.203,0.584-0.545,0.663-0.941l0.212-1.068c0.15-0.711,0.297-1.422,0.425-2.137l0.036-0.189
		C102.047,74.721,102.223,73.793,101.8,72.729"/>
</g>
</svg>
