<?xml version="1.0" encoding="utf-8"?>
<!-- Generator: Adobe Illustrator 16.0.0, SVG Export Plug-In . SVG Version: 6.00 Build 0)  -->
<!DOCTYPE svg PUBLIC "-//W3C//DTD SVG 1.1//EN" "http://www.w3.org/Graphics/SVG/1.1/DTD/svg11.dtd">
<svg version="1.1" id="Layer_1" xmlns="http://www.w3.org/2000/svg" xmlns:xlink="http://www.w3.org/1999/xlink" x="0px" y="0px"
	 width="175.333px" height="300px" viewBox="0 0 175.333 300" enable-background="new 0 0 175.333 300" xml:space="preserve">
<g>
	<path fill-rule="evenodd" clip-rule="evenodd" fill="#FFFFFF" d="M126.747,272.23c-0.807-1.235-1.135-2.471-1.514-5.169
		c-0.402-2.674-0.908-6.81-1.311-10.768c-0.402-3.96-0.756-7.717-1.082-11.474c0.553-0.076,1.107-0.177,1.662-0.454
		c0.529-0.278,1.033-0.731,1.236-1.487c0.201-0.758,0.074-1.816-0.152-4.087c-0.227-2.269-0.58-5.748-0.934-9.254
		c0.254-0.353,0.529-0.707,0.58-1.639c0.027-0.958-0.15-2.496-0.277-4.111c-0.15-1.639-0.275-3.378-0.402-5.724
		c-0.152-2.345-0.33-5.294-0.504-8.271c0.328-0.15,0.654-0.303,0.932-0.605c0.252-0.302,0.453-0.73,0.504-1.462
		c0.051-0.706-0.076-1.689-0.578-5.799c-0.506-4.111-1.412-11.374-2.295-18.611c0.178,0.127,0.354,0.253,0.682,0.354
		c0.301,0.076,0.756,0.1,1.26-0.051c0.504-0.176,1.059-0.555,1.639-1.21c0.58-0.631,1.16-1.539,1.713-2.85
		c0.529-1.312,1.033-3.052,1.336-4.666c0.303-1.613,0.379-3.126,0.354-4.236c0-1.134-0.125-1.891-0.252-2.647
		c0.201-0.251,0.402-0.504,0.631-0.781c0.504,0.101,1.033,0.201,1.689,0.101c0.68-0.126,1.484-0.479,2.393-1.109
		c0.881-0.63,1.891-1.538,2.848-2.622c0.984-1.11,1.914-2.371,2.395-3.455c0.504-1.109,0.557-2.018,0.43-2.698
		c-0.152-0.655-0.48-1.085-0.809-1.513c0.682-0.832,1.338-1.689,2.018-2.522c-0.354-0.276-0.68-0.529-1.033-0.807
		c0.453-0.556,0.883-1.109,1.311-1.664c-3.982-3.177-7.988-6.355-11.998-9.532c-0.428,0.555-0.881,1.109-1.311,1.664
		c-0.402-0.327-0.781-0.631-1.184-0.933c-0.857,1.085-1.715,2.169-2.57,3.253c-1.211-0.882-2.42-1.765-3.605-2.647
		c0.428-6.33,0.102-14.021-6.275-17.804c0.074-0.58,0.176-1.16,0.15-1.841c0-0.655-0.1-1.437-0.68-3.378s-1.639-5.018-2.672-8.095
		c0.303-0.202,0.604-0.429,0.832-0.655c0.25-0.227,0.428-0.479,0.504-0.808c0.074-0.327,0.051-0.73-0.227-1.613
		s-0.807-2.245-1.336-3.606c0.453-0.076,0.906-0.151,1.209-0.303c0.303-0.176,0.428-0.403,0.453-0.681
		c0-0.251-0.15-0.529-0.453-1.16c-0.303-0.655-0.807-1.638-1.285-2.647c0.203-0.176,0.377-0.328,0.504-0.529
		c0.102-0.202,0.152-0.43,0.152-0.782c-0.025-0.378-0.102-0.858-0.203-1.362c3.881-1.487,7.764-2.975,11.645-4.463
		c-4.184,0.303-8.418,0.631-12.602,0.934c-0.102-0.227-0.227-0.479-0.328-0.706c-0.102-0.202-0.201-0.378-0.301-0.58
		c3.805-2.699,7.561-5.372,11.365-8.069c-4.486,1.74-9.148,3.581-13.635,5.295c-0.203-0.176-0.379-0.329-0.58-0.504
		c-0.227-0.151-0.453-0.329-0.654-0.479c2.016-4.085,4.334-8.499,6.35-12.583c-3.428,3.354-7.006,7.39-10.459,10.768
		c-0.125-0.05-0.277-0.077-0.428-0.101c-0.178-0.05-0.354-0.076-0.504-0.101c-1.086-4.59-2.143-9.708-3.201-14.324
		c-0.758,4.666-1.436,9.859-2.191,14.5c-0.178,0.05-0.354,0.101-0.557,0.151c-0.227,0.076-0.277,0.101-0.479,0.152
		c-3.578-2.975-7.41-6.33-10.989-9.305c2.293,3.858,4.612,7.717,6.93,11.575c-0.176,0.151-0.354,0.302-0.529,0.479
		c-0.15,0.151-0.301,0.302-0.453,0.454c-4.184-1.134-8.342-2.244-12.527-3.354c3.479,2.144,6.983,4.288,10.46,6.431
		c-0.102,0.227-0.178,0.428-0.252,0.629c-0.051,0.177-0.125,0.354-0.201,0.555c-3.503,0.63-7.008,1.211-10.511,1.842
		c-0.151-0.227-0.302-0.43-0.479-0.58c-0.201-0.152-0.428-0.227-0.654-0.252c-0.227-0.025-0.454,0-0.63,0.076
		c-0.177,0.051-0.303,0.126-0.43,0.202c-0.629-1.261-1.259-2.522-1.639-3.606c-0.377-1.059-0.503-1.942-0.729-3.505
		c-0.228-1.539-0.556-3.783-1.159-6.178c-0.631-2.371-1.562-4.917-2.496-8.297c-0.934-3.378-1.864-7.59-2.419-10.616
		c-0.555-3.026-0.757-4.867-0.935-6.683c0.253-1.16,0.506-2.32,0.732-3.581c0.202-1.261,0.403-2.623,0.479-3.959
		c0.05-1.336-0.025-2.648-0.276-3.808c-0.252-1.135-0.706-2.119-1.261-2.875c-0.58-0.757-1.286-1.312-1.991-1.866
		c-0.024-0.732-0.024-1.463-0.051-2.195c0.428-0.403,1.26-1.008,1.285-1.336l0.075-2.094c0.884,0.025,1.765,0.101,2.572,0.202
		c0.806,0.127,1.512,0.354,1.89,0.152c0.354-0.177,0.329-0.757,0.377-1.362c0.026-0.631,0.127-1.311,0.229-1.917
		c0.101-0.605,0.201-1.159,0.101-1.538c-0.126-0.378-0.453-0.604-1.108-0.908c-0.656-0.277-1.64-0.605-2.495-0.807
		c-0.858-0.177-2.319-0.353-3.025-0.428c0-0.858,0-1.64,0-2.497c0.856-0.731,1.739-1.463,2.521-2.572
		c0.78-1.109,1.486-2.572,2.016-4.563c0.529-1.993,0.856-4.514,1.21-7.011c-1.234,0.958-2.445,1.917-3.755,2.673
		c-1.312,0.781-2.725,1.388-4.109,2.042c-1.41,0.631-2.822,1.337-3.855,2.194c-1.06,0.856-1.789,1.866-2.144,2.749
		c-0.352,0.908-0.352,1.665-0.227,2.295c0.125,0.655,0.378,1.185,0.63,1.714c0,1.034,0,2.042,0,3.077
		c-0.958,0.126-1.134,0.251-2.167,0.504c-1.034,0.227-2.143,0.605-2.822,0.832c-0.682,0.253-0.959,0.404-1.009,0.707
		c-0.05,0.328,0.075,0.807,0.227,1.412c0.151,0.58,0.276,1.261,0.403,1.942c0.126,0.706,0.253,1.386,0.529,1.689
		c0.277,0.277,0.706,0.176,1.185,0.076c0.731-0.126,1.84-0.328,2.545-0.379c0,0.657,0,1.362,0,2.018
		c-0.275,0.176-0.555,0.377-0.68,0.756c-0.102,0.353-0.051,0.933,0.302,1.437c0.354,0.504,0.982,0.959,1.462,1.287
		c0.479,0.353,0.757,0.58,1.06,0.807c-0.252,0.479-0.505,0.983-0.605,1.487c-0.075,0.505-0.024,1.035,0.076,1.438
		c0.1,0.378,0.251,0.656,0.402,0.907c-0.151,0.378-0.276,0.782-0.353,1.185c-0.075,0.404-0.075,0.857,0.05,1.261
		c0.127,0.403,0.38,0.782,0.631,1.135c-0.178,0.429-0.328,0.832-0.378,1.337c-0.05,0.478,0.026,1.033,0.252,1.488
		c0.228,0.453,0.631,0.806,1.034,1.16c-0.153,2.497-0.278,4.967-0.253,6.43c0.026,1.438,0.202,1.841,0.454,2.27
		c0.252,0.429,0.63,1.059,0.958,1.539c0.327,2.773,0.63,5.396,1.058,9.128c0.404,3.732,0.934,8.422,1.714,13.037
		c0.782,4.59,1.865,9.104,2.495,11.928c0.656,2.799,0.857,3.909,1.086,5.018c-0.783,1.615-1.565,3.229-2.295,5.043
		c-0.731,1.816-1.412,3.859-1.841,5.952c-0.428,2.067-0.654,4.186-0.555,5.8c0.077,1.614,0.479,2.724,0.983,3.555
		c0.529,0.833,1.186,1.413,1.715,1.766c0.528,0.328,0.933,0.403,1.336,0.504c-0.127,0.681-0.253,1.388-0.203,2.043
		c0.076,0.63,0.354,1.236,0.732,1.639c0.403,0.404,0.906,0.605,1.41,0.807c0.026,0.378,0.026,0.757,0.178,1.135
		c0.175,0.379,0.478,0.756,0.831,0.983c0.353,0.202,0.731,0.277,1.109,0.353c-0.807,1.463-1.639,2.925-2.219,4.161
		c-0.555,1.235-0.881,2.244-1.083,3.177c-0.202,0.958-0.277,1.842-0.177,2.573c0.077,0.706,0.354,1.261,0.63,1.639
		c0.304,0.379,0.604,0.555,0.933,0.732c-0.075,0.202-0.151,0.428-0.151,0.755c-0.024,0.328,0,0.757,0.229,1.11
		c0.225,0.378,0.68,0.655,1.133,0.807c0.453,0.126,0.907,0.101,1.386,0.05c-0.025,0.757-0.05,1.514,0.051,2.118
		c0.075,0.605,0.278,1.034,0.555,1.312c0.253,0.277,0.58,0.354,0.933,0.454c-0.101,0.354-0.202,0.73-0.202,1.16
		c-0.024,0.454,0.026,0.958,0.202,1.312c0.152,0.353,0.403,0.529,0.655,0.731c-1.387,2.27-2.747,4.563-3.704,6.657
		c-0.958,2.068-1.487,3.958-1.588,5.471c-0.126,1.489,0.15,2.648,0.704,3.404c0.556,0.782,1.388,1.136,2.144,1.262
		s1.437,0,2.116-0.126c-0.856,2.85-1.688,5.699-2.269,7.994c-0.604,2.269-0.906,4.009-1.007,5.271
		c-0.101,1.261,0.051,2.042,0.327,2.621c0.276,0.606,0.68,0.985,1.083,1.389c-0.177,0.883-0.327,1.765-0.327,2.521
		c0,0.73,0.15,1.36,0.403,1.815c0.253,0.453,0.58,0.756,0.908,1.084c-0.403,1.437-0.832,2.874-1.135,4.438
		c-0.303,1.539-0.479,3.178-0.453,4.741c0.05,1.589,0.276,3.076,0.578,4.262s0.631,2.068,0.857,3.254
		c0.202,1.209,0.277,2.723,0.253,4.74c-0.051,2.017-0.202,4.538-0.329,6.354c-0.126,1.816-0.2,2.926-0.403,3.757
		c-0.2,0.859-0.503,1.438-0.655,1.968c-0.15,0.505-0.101,0.908-0.024,1.236c0.101,0.328,0.252,0.579,0.378,0.806
		c-0.228,2.145-0.479,4.263-0.706,6.658c-0.227,2.396-0.428,5.019-0.327,7.237c0.101,2.22,0.479,4.01,0.855,5.725
		c0.38,1.739,0.783,3.404,0.859,5.698c0.074,2.271-0.151,5.195-0.354,7.212c-0.176,2.018-0.303,3.153-0.353,4.109
		c-0.052,0.959-0.052,1.717-0.026,2.296c0.026,0.581,0.076,0.958,0.253,1.084c0.175,0.127,0.503,0,0.806-0.126
		c-0.05,1.212-0.126,2.396-0.478,3.354c-0.353,0.933-0.984,1.639-1.94,2.118c-0.959,0.505-2.244,0.808-3.53,1.11
		c0,4.085,0,8.17,0,12.28c22.182,0,44.334,0,66.489,0c0-4.11,0-8.195,0-12.28C128.864,274.677,127.551,273.466,126.747,272.23
		L126.747,272.23z M122.739,174.138l7.637-9.608c-0.203-0.328-0.402-0.631-0.555-0.933c-0.201-0.43-0.303-0.858-0.303-1.236
		c0.025-0.378,0.125-0.706,0.303-0.958c0.152-0.252,0.326-0.403,0.479-0.504c0.127-0.101,0.227-0.151,0.326-0.228
		c-0.074-0.126-0.148-0.252-0.227-0.505c-0.1-0.252-0.199-0.63-0.125-1.033c0.076-0.429,0.303-0.857,0.555-1.11
		c0.227-0.276,0.504-0.403,0.781-0.504c-0.025-0.327-0.074-0.63,0-0.957c0.076-0.304,0.277-0.606,0.506-0.833
		c0.25-0.201,0.578-0.328,0.855-0.353c0.303-0.051,0.555,0,0.832,0.024c-0.051-0.127-0.102-0.276-0.102-0.504
		c-0.023-0.228,0.025-0.53,0.176-0.808c0.178-0.251,0.455-0.479,0.783-0.58c0.326-0.126,0.705-0.126,1.057-0.024
		c0.379,0.101,0.758,0.303,1.111,0.579c0.352,0.278,0.705,0.58,0.932,0.833c0.049,0.051,0.102,0.075,0.15,0.126l1.287-1.64
		l-11.998-9.506l-8.039,10.137c0.352,2.521,0.729,5.043,1.107,7.641c0.404,2.9,0.807,5.901,1.109,8.423
		c0.15,1.186,0.277,2.269,0.404,3.304L122.739,174.138z M132.088,164.731c-0.1-0.304-0.303-0.631-0.578-0.983
		c-0.303-0.379-0.682-0.758-0.857-1.161s-0.127-0.807,0.076-1.059c0.176-0.252,0.527-0.353,0.881-0.277
		c0.328,0.051,0.656,0.277,0.982,0.579c0.303,0.303,0.605,0.682,0.908,1.06c-0.1-0.327-0.227-0.681-0.453-1.06
		c-0.227-0.353-0.58-0.781-0.959-1.159c-0.354-0.378-0.756-0.73-0.881-1.085c-0.127-0.352,0-0.73,0.201-0.957
		c0.201-0.253,0.453-0.354,0.756-0.354c0.303,0.025,0.656,0.151,1.01,0.403c0.352,0.252,0.73,0.605,1.082,0.983
		c0.328,0.379,0.656,0.782,0.957,1.186c-0.1-0.328-0.227-0.655-0.477-1.034c-0.254-0.403-0.631-0.857-1.086-1.261
		c-0.426-0.403-0.881-0.731-1.109-1.085c-0.199-0.327-0.15-0.68,0.076-0.958c0.227-0.276,0.631-0.454,1.135-0.378
		c0.48,0.075,1.059,0.43,1.588,0.907c0.529,0.479,0.982,1.06,1.438,1.64c-0.176-0.479-0.352-0.933-0.631-1.412
		c-0.277-0.454-0.654-0.908-1.008-1.286c-0.354-0.353-0.631-0.631-0.705-0.933c-0.076-0.303,0.1-0.605,0.352-0.807
		c0.277-0.202,0.631-0.303,1.033-0.202c0.404,0.125,0.834,0.429,1.336,0.933c0.48,0.479,1.01,1.135,1.336,1.614
		c0.354,0.479,0.479,0.781,0.404,1.084c-0.051,0.328-0.277,0.682-1.033,1.513c-0.756,0.808-2.018,2.119-3.051,3.253
		c-1.008,1.136-1.814,2.144-2.621,3.127C132.19,165.312,132.19,165.033,132.088,164.731L132.088,164.731z M121.428,173.683
		c0.227,1.035,0.453,2.043,0.73,2.925c0.275,0.884,0.631,1.64,0.932,2.145c0.277,0.504,0.504,0.757,0.758,0.857
		c0.252,0.101,0.529,0.025,0.881-0.277c0.328-0.303,0.73-0.858,1.16-1.791c0.402-0.907,0.857-2.219,1.311-3.505
		c-0.73,1.16-1.461,2.319-1.967,3.026c-0.479,0.705-0.73,0.933-0.982,0.957c-0.277,0.051-0.529-0.125-1.008-0.882
		C122.79,176.382,122.108,175.045,121.428,173.683L121.428,173.683z M128.485,171.187c-0.102,1.336-0.227,2.673-0.504,4.085
		c-0.252,1.387-0.705,2.849-1.16,3.96c-0.453,1.109-0.932,1.866-1.387,2.294c-0.428,0.454-0.855,0.604-1.234,0.604
		s-0.705-0.125-1.008-0.353c-0.277-0.201-0.529-0.479-0.781-0.781c-0.125-0.983-0.227-1.967-0.354-2.926
		c0.328,0.807,0.908,2.446,1.992,2.396c0.453-0.024,0.982-0.303,1.436-0.756c0.43-0.454,0.758-1.109,1.109-1.942
		c0.354-0.857,0.73-1.866,1.033-2.976C127.956,173.658,128.233,172.422,128.485,171.187L128.485,171.187z M62.147,42.303
		c0.579,0.454,1.159,0.908,1.588,1.589c0.453,0.681,0.757,1.563,0.881,2.446c0.101,0.883,0,1.715-0.327,3.025
		c-0.354,1.286-0.907,3.051-1.462,4.816c-0.177-0.227-0.379-0.428-0.504-0.63c-0.151-0.202-0.253-0.379-0.353-0.581
		c0.177-0.251,0.326-0.479,0.428-0.807c0.102-0.302,0.102-0.681,0.025-1.034c-0.101-0.353-0.303-0.655-0.479-0.857
		c-0.151-0.202-0.252-0.277-0.353-0.378c0.175-0.303,0.326-0.631,0.453-0.983c0.102-0.354,0.151-0.782,0.126-1.186
		c-0.024-0.378-0.126-0.732-0.253-1.009c-0.125-0.252-0.275-0.429-0.453-0.581c0.151-0.327,0.328-0.68,0.378-1.033
		c0.051-0.353,0-0.757-0.076-1.059c-0.1-0.303-0.252-0.505-0.403-0.706C61.644,42.983,61.895,42.656,62.147,42.303L62.147,42.303z
		 M57.207,49.869c-0.227,0.151-0.453,0.403-0.58,0.755c-0.126,0.354-0.102,0.807,0.051,1.185c0.126,0.354,0.402,0.605,0.68,0.858
		c0.126-0.125,0.228-0.227,0.403-0.404c0.202-0.151,0.454-0.354,0.731-0.504c0.302-0.126,0.58-0.228,0.883-0.303
		c0.125,0.202,0.277,0.429,0.478,0.58c0.202,0.151,0.479,0.252,0.732,0.303c0.276,0.025,0.553,0,0.756-0.101
		c0.201-0.101,0.303-0.278,0.303-0.504c0.024-0.228-0.076-0.505-0.329-0.808c-0.276-0.302-0.705-0.629-1.133-0.856
		c-0.43-0.252-0.857-0.429-1.235-0.505c-0.38-0.101-0.707-0.075-1.01,0C57.66,49.616,57.434,49.691,57.207,49.869L57.207,49.869z
		 M56.702,46.54c0.228-0.253,0.631-0.404,1.059-0.479c0.429-0.05,0.882-0.025,1.412,0.126c0.504,0.152,1.082,0.429,1.462,0.681
		c0.378,0.251,0.554,0.479,0.63,0.857c0.05,0.353,0,0.857-0.101,1.134c-0.102,0.303-0.202,0.379-0.403,0.354
		c-0.176-0.051-0.429-0.253-0.73-0.429c-0.304-0.176-0.682-0.328-1.109-0.428c-0.429-0.076-0.934-0.076-1.311,0
		c-0.354,0.076-0.606,0.227-0.856,0.378c-0.127-0.202-0.278-0.378-0.354-0.58c-0.076-0.227-0.102-0.479-0.076-0.782
		C56.351,47.094,56.45,46.766,56.702,46.54L56.702,46.54z M56.954,42.882c0.303-0.075,0.681-0.049,1.186,0.051
		c0.503,0.101,1.159,0.277,1.587,0.453c0.455,0.202,0.731,0.404,0.883,0.656c0.176,0.277,0.227,0.605,0.227,0.882
		c0.025,0.277-0.024,0.504-0.178,0.555c-0.124,0.05-0.326-0.076-0.628-0.228c-0.278-0.126-0.631-0.252-1.084-0.328
		c-0.428-0.101-0.934-0.101-1.387-0.05c-0.429,0.075-0.781,0.201-1.109,0.352c-0.126-0.302-0.252-0.604-0.276-0.932
		c-0.026-0.303,0.024-0.656,0.15-0.909C56.45,43.135,56.678,42.958,56.954,42.882L56.954,42.882z M56.45,39.024
		c0.53-0.076,1.033-0.151,1.638-0.227c0.581-0.051,1.261-0.051,1.791-0.051c0.529,0.025,0.933,0.051,1.31,0.101
		c-0.051,0.782-0.074,1.563-0.201,2.219c-0.101,0.655-0.303,1.185-0.479,1.714c-0.478-0.177-0.957-0.328-1.462-0.479
		c-0.479-0.151-1.007-0.303-1.536-0.429C57.155,40.94,56.804,39.983,56.45,39.024L56.45,39.024z M62.877,35.469
		c-0.63-0.051-1.26-0.076-2.016-0.101s-1.588,0-2.343,0.025c-0.758,0.025-1.413,0.076-1.968,0.125
		c-0.579,0.051-1.059,0.101-1.536,0.152c0,0.655,0.023,1.336,0.023,2.017c0.177,0.051,0.354,0.126,0.505,0.202
		c0.178,0.101,0.328,0.202,0.479,0.277c0.556-0.05,1.134-0.126,1.84-0.176c0.705-0.05,1.588-0.101,2.244-0.101
		c0.68,0,1.135,0.051,1.612,0.076c0.201-0.151,0.43-0.302,0.605-0.403c0.177-0.126,0.327-0.202,0.403-0.303
		c0.076-0.101,0.101-0.227,0.101-0.529C62.854,36.427,62.877,35.949,62.877,35.469L62.877,35.469z M58.239,60.257
		c0.555-0.151,1.109-0.302,1.689-0.377c0.555-0.076,1.109-0.076,1.639-0.026c0.503,0.051,0.933,0.177,1.386,0.303
		c-0.252-1.639-0.505-3.253-0.731-4.892c-0.227-0.278-0.478-0.555-0.68-0.882c-0.201-0.354-0.378-0.732-0.555-1.11
		c-0.276,0.025-0.555,0.025-0.832,0c-0.252-0.025-0.503-0.101-0.706-0.202c-0.2-0.101-0.354-0.227-0.503-0.353
		c-0.304,0.151-0.605,0.302-0.907,0.453C58.113,55.542,58.189,57.886,58.239,60.257L58.239,60.257z M58.163,61.745
		c0.606-0.227,1.186-0.479,1.816-0.58c0.63-0.127,1.285-0.127,1.838-0.051c0.53,0.076,0.935,0.202,1.312,0.354
		c-0.127,0.58-0.276,1.185-0.479,1.766c-0.202,0.58-0.453,1.16-0.731,1.563c-0.251,0.428-0.528,0.68-0.906,0.58
		c-0.354-0.101-0.808-0.58-1.234-1.084c-0.43-0.505-0.807-1.035-1.085-1.489C58.442,62.375,58.316,62.073,58.163,61.745
		L58.163,61.745z M50.352,32.997c0.706-0.201,1.411-0.403,2.242-0.604c1.059-0.251,2.319-0.529,3.705-0.655
		c1.387-0.151,2.898-0.151,4.436-0.101c1.513,0.075,3.025,0.252,4.311,0.454c1.06,0.177,1.966,0.378,2.849,0.58
		c0.024-0.378,0.05-0.706-0.051-0.933c-0.126-0.277-0.429-0.379-0.857-0.505c-0.428-0.125-0.981-0.302-2.167-0.504
		c-1.186-0.202-2.975-0.454-4.737-0.504c-1.74-0.05-3.454,0.101-4.84,0.277c-1.412,0.177-2.496,0.429-3.201,0.605
		c-0.706,0.176-1.009,0.302-1.261,0.403c-0.252,0.101-0.479,0.202-0.528,0.504C50.225,32.242,50.275,32.594,50.352,32.997
		L50.352,32.997z M67.793,33.527c-0.782-0.202-1.538-0.378-2.345-0.504c-0.956-0.177-1.991-0.303-3.074-0.378
		c-1.109-0.101-2.319-0.152-3.528-0.152c-1.235,0.026-2.472,0.101-3.631,0.252c-1.133,0.151-2.192,0.328-3.05,0.555
		c-0.631,0.176-1.159,0.328-1.663,0.504c0.101,0.404,0.202,0.782,0.327,0.958c0.177,0.277,0.403,0.176,0.958,0.025
		c4.714-1.21,9.906-1.16,14.694-0.429c0.479,0.076,0.832,0.202,1.034-0.05C67.667,34.158,67.74,33.855,67.793,33.527L67.793,33.527z
		 M55.744,26.341c0.328,0.025,0.656,0.05,1.083,0.025c0.456-0.025,1.01-0.101,1.489-0.227c0.503-0.127,0.906-0.303,1.184-0.454
		c0.302-0.152,0.454-0.277,0.605-0.403c0.076,0.202,0.126,0.403,0.276,0.58c0.177,0.202,0.403,0.379,0.631,0.479
		c0.228,0.101,0.402,0.101,0.604,0.101c0,0.857,0,1.588,0,2.446c-1.815-0.101-4.032-0.05-5.873,0.05
		C55.744,28.08,55.744,27.224,55.744,26.341L55.744,26.341z M66.381,15.497c-0.05,1.084-0.102,2.194-0.253,3.177
		c-0.15,0.983-0.403,1.816-0.705,2.421c-0.277,0.631-0.629,0.983-0.957,1.336c0.076-0.252,0.126-0.479,0.176-0.806
		c0.025-0.303,0.051-0.707,0.025-1.059c-0.051-0.354-0.125-0.657-0.201-0.984c-0.277,0.655-0.556,1.286-0.933,1.891
		c-0.378,0.58-0.883,1.084-1.336,1.513c-0.453,0.404-0.883,0.681-1.185,0.857s-0.479,0.253-0.681,0.328
		c0.202-0.377,0.429-0.756,0.579-1.235c0.151-0.455,0.227-1.034,0.227-1.539c0-0.479-0.125-0.908-0.227-1.311
		c-0.177,0.832-0.353,1.665-0.729,2.395c-0.354,0.757-0.883,1.387-1.464,1.816c-0.604,0.453-1.234,0.706-1.764,0.756
		c-0.504,0.051-0.906-0.126-1.159-0.529c-0.277-0.378-0.429-1.008-0.354-1.639c0.051-0.63,0.329-1.287,0.782-1.815
		c0.454-0.555,1.109-1.008,2.066-1.514c0.959-0.504,2.269-1.058,3.378-1.588c1.135-0.504,2.092-0.958,2.824-1.361
		C65.247,16.203,65.826,15.851,66.381,15.497L66.381,15.497z M110.463,94.577c0.125,0.378,0.227,0.757,0.352,1.135
		c2.371-0.581,4.764-1.16,7.135-1.741C115.456,94.173,112.959,94.375,110.463,94.577L110.463,94.577z M107.893,90.366
		c0.176,0.228,0.377,0.455,0.555,0.707c2.621-1.361,5.242-2.724,7.863-4.061C113.514,88.123,110.69,89.232,107.893,90.366
		L107.893,90.366z M103.053,87.365c0.453,0.227,0.934,0.428,1.412,0.63c1.562-2.471,3.125-4.917,4.688-7.388
		C107.112,82.852,105.069,85.122,103.053,87.365L103.053,87.365z M86.393,97.477c0.051-0.277,0.076-0.555,0.127-0.781
		c0.025-0.227,0.074-0.429,0.125-0.605c-3.125,0.555-6.276,1.109-9.426,1.689C80.269,97.679,83.344,97.578,86.393,97.477
		L86.393,97.477z M81.227,89.256c2.193,1.287,4.413,2.572,6.604,3.833c0.277-0.404,0.553-0.832,0.832-1.236
		C86.192,90.997,83.696,90.139,81.227,89.256L81.227,89.256z M91.131,89.181c0.453-0.302,0.906-0.58,1.336-0.856
		c-2.143-2.472-4.311-4.943-6.453-7.414C87.731,83.658,89.418,86.407,91.131,89.181L91.131,89.181z M96.702,86.911
		c0.504-0.05,1.01-0.101,1.512-0.125c-0.076-3.581-0.176-7.137-0.252-10.692C97.561,79.7,97.129,83.305,96.702,86.911L96.702,86.911
		z M108.95,94.3c-1.639-3.657-5.543-6.204-10.105-6.204c-4.561,0-8.469,2.547-10.133,6.204c2.42-2.269,6.051-3.682,10.133-3.682
		C102.928,90.618,106.557,92.031,108.95,94.3L108.95,94.3z M110.54,110.64c0.303-0.251,0.604-0.504,0.781-0.755
		c0.178-0.252,0.178-0.53-0.152-1.413c-0.354-0.858-1.059-2.319-1.41-3.757s-0.352-2.849-0.352-4.262
		c-0.279-0.227-0.557-0.429-0.834-0.63c0.025,1.387,0.051,2.8,0.15,4.086c0.127,1.286,0.303,2.445,0.631,3.555
		C109.657,108.573,110.11,109.607,110.54,110.64L110.54,110.64z M108.297,108.069c-0.076,0.656-0.152,1.311-0.279,1.866
		c-0.15,0.529-0.377,0.958-0.428,1.665c-0.049,0.681,0.023,1.639,0.68,3.53c0.631,1.891,1.816,4.741,2.975,7.565
		c0.051-0.378,0.076-0.782-0.203-1.841c-0.275-1.058-0.881-2.773-1.385-4.261c-0.529-1.463-0.957-2.648-1.184-3.555
		c-0.227-0.909-0.227-1.514-0.203-1.993c0.051-0.453,0.15-0.807,0.203-1.159c0.023-0.379,0.023-0.757,0-1.059
		C108.42,108.523,108.372,108.295,108.297,108.069L108.297,108.069z M66.204,115.205c-0.126,0.53-0.251,1.059-0.353,1.613
		c-0.127,0.531-0.227,1.11-0.327,1.69c0.68,0.05,1.336,0.125,2.066-0.127c0.756-0.277,1.588-0.857,2.495-1.815
		c0.933-0.933,1.941-2.245,2.798-3.53c0.832-1.261,1.538-2.472,2.143-3.683c0.605-1.235,1.134-2.471,1.487-3.581
		c0.377-1.11,0.604-2.118,0.681-3.026c0.075-0.908,0.024-1.715-0.051-2.521c-0.126,0.958-0.253,1.891-0.504,2.824
		c-0.229,0.908-0.53,1.791-0.933,2.623c-0.379,0.831-0.808,1.588-1.234,2.345c0.453-1.387,0.882-2.774,1.184-3.959
		c0.302-1.185,0.429-2.169,0.504-3.077c0.076-0.933,0.076-1.816-0.025-2.396c-0.126-0.58-0.353-0.882-0.554-0.983
		c-0.227-0.101-0.454-0.026-0.655,0.075c0.075,0.934,0.151,1.866,0.075,3.128c-0.075,1.285-0.276,2.874-0.555,4.312
		c-0.302,1.437-0.68,2.698-1.135,3.908c-0.453,1.185-1.008,2.294-1.587,3.203c-0.555,0.908-1.109,1.589-1.689,2.093
		c-0.579,0.529-1.186,0.883-1.688,1.06c-0.529,0.175-0.982,0.175-1.336,0.125C66.684,115.431,66.431,115.331,66.204,115.205
		L66.204,115.205z M65.448,119.518c0.73,0.076,1.462,0.151,2.395-0.202c0.934-0.353,2.066-1.135,3.101-2.194
		c1.058-1.084,2.017-2.471,2.923-3.933c0.909-1.438,1.739-2.976,2.421-4.362c0.681-1.363,1.16-2.573,1.462-3.531
		c0.275-0.958,0.378-1.664,0.402-2.143c0.025-0.455,0-0.706-0.024-0.933c0.328,0.277,0.654,0.58,0.856,1.21
		c0.202,0.655,0.303,1.639-0.025,3s-1.084,3.102-2.041,4.715c-0.933,1.64-2.068,3.178-3.051,4.489
		c-0.958,1.312-1.739,2.421-2.395,3.329c-0.654,0.882-1.208,1.539-1.713,1.992c-0.503,0.454-0.982,0.681-1.437,0.807
		c-0.479,0.126-0.934,0.151-1.337,0.075c-0.428-0.05-0.807-0.201-1.083-0.428c-0.253-0.227-0.404-0.555-0.454-0.882
		C65.398,120.172,65.423,119.845,65.448,119.518L65.448,119.518z M65.448,124.056c0.253,0.227,0.505,0.479,0.831,0.63
		c0.354,0.177,0.783,0.251,1.186,0.251c0.403,0,0.806-0.101,1.135-0.226c0.326-0.127,0.604-0.302,0.881-0.479
		c-0.352,0.454-0.679,0.907-1.084,1.186c-0.377,0.276-0.806,0.377-1.233,0.377c-0.404-0.024-0.807-0.152-1.085-0.377
		c-0.303-0.202-0.453-0.48-0.529-0.732C65.475,124.459,65.448,124.258,65.448,124.056L65.448,124.056z M65.625,122.543
		c0.63,0.151,1.26,0.302,1.966,0.276c0.706-0.05,1.487-0.251,2.143-0.655c0.655-0.404,1.185-0.958,1.689-1.588
		c0.528-0.631,1.032-1.312,1.537-1.993c-0.656,1.085-1.286,2.194-1.941,3.127c-0.681,0.933-1.36,1.715-2.093,2.118
		c-0.706,0.429-1.436,0.454-1.94,0.353c-0.528-0.126-0.831-0.404-1.032-0.706C65.775,123.174,65.701,122.871,65.625,122.543
		L65.625,122.543z M64.97,105.396c0.302,1.513,0.579,3.026,0.731,4.035c0.125,1.034,0.125,1.563-0.076,2.698
		c-0.177,1.135-0.58,2.9-0.856,4.187c-0.276,1.312-0.479,2.168-0.556,3.127c-0.074,0.982-0.024,2.067,0.076,2.925
		c0.076,0.832,0.253,1.438,0.403,2.043c-0.429-0.631-0.856-1.262-1.21-2.119c-0.378-0.882-0.68-2.017-0.781-3.127
		c-0.101-1.109,0-2.193,0.226-3.302c0.203-1.11,0.53-2.245,0.883-3.304c0.329-1.084,0.683-2.119,1.034-3.152
		c-0.604,1.084-1.234,2.143-1.766,3.455c-0.555,1.336-1.008,2.926-1.234,4.337c-0.227,1.437-0.227,2.699-0.15,3.606
		c0.074,0.933,0.226,1.513,0.377,2.092c-0.326-0.403-0.63-0.831-0.856-1.664c-0.252-0.832-0.402-2.093-0.276-3.631
		c0.125-1.538,0.503-3.405,1.033-5.094c0.503-1.714,1.159-3.303,1.688-4.462C64.188,106.883,64.592,106.152,64.97,105.396
		L64.97,105.396z M82.21,141.354c-0.278-0.126-0.529-0.252-0.807-0.428c-0.302-0.202-0.581-0.455-0.832-0.757
		c-0.227-0.277-0.429-0.605-0.579-1.008c-0.151-0.379-0.228-0.883-0.303-1.362c-0.051,0.455-0.101,0.883-0.127,1.438
		c-0.023,0.529,0,1.186,0.052,1.741c0.049,0.529,0.15,0.983,0.251,1.361c0.077,0.378,0.177,0.68,0.277,1.009
		C80.822,142.667,81.528,142.01,82.21,141.354L82.21,141.354z M83.772,117.702c-0.858,1.538-1.74,3.076-2.722,4.564
		c-1.009,1.488-2.143,2.925-3.026,4.286c-0.907,1.337-1.536,2.573-2.192,4.111c-0.63,1.539-1.284,3.379-1.865,4.715
		c-0.579,1.362-1.134,2.219-1.637,3.228c-0.479,1.009-0.959,2.169-1.387,3.278c-0.429,1.109-0.832,2.169-1.084,3.152
		c-0.277,0.958-0.379,1.842-0.403,2.624c-0.051,0.807,0.024,1.537,0.176,1.967c0.177,0.428,0.454,0.553,0.732,0.68
		c0.251-1.184,0.504-2.345,1.083-4.236c0.554-1.867,1.411-4.439,2.143-6.456c0.729-2.018,1.36-3.454,1.991-4.892
		c-0.631,2.345-1.262,4.716-1.916,7.01c-0.655,2.321-1.335,4.59-1.738,6.279c-0.379,1.665-0.479,2.774-0.455,3.48
		c0.026,0.705,0.202,1.009,0.354,1.336c0.731-1.108,1.462-2.244,2.494-3.555c1.06-1.312,2.396-2.825,3.252-3.758
		c0.884-0.907,1.285-1.236,1.688-1.563c-1.235-3.909-0.604-7.364,0.354-11.222c0.402-1.639,0.957-3.555,1.437-4.993
		c0.478-1.438,0.907-2.446,1.334-3.429c-0.478,2.193-0.932,4.412-1.283,6.328c-0.354,1.917-0.581,3.556-0.581,4.994
		c0.026,1.437,0.252,2.647,0.681,3.379c0.453,0.755,1.135,1.084,1.766,1.235c0.705-1.134,1.385-2.27,2.495-3.505
		c1.084-1.26,2.596-2.597,4.184-3.934c1.588-1.311,3.227-2.597,4.688-3.53c1.436-0.908,2.723-1.437,3.982-1.967
		c-0.908-0.176-1.814-0.353-2.873-0.781c-1.059-0.454-2.268-1.135-3.227-1.992c-0.957-0.882-1.713-1.917-2.443-2.975
		c-0.025,1.235-0.025,2.446-0.279,3.782c-0.252,1.312-0.705,2.749-1.184,4.162c0.252-1.615,0.479-3.254,0.604-4.64
		c0.127-1.387,0.127-2.547,0.051-3.431c-0.074-0.882-0.252-1.512-0.453-2.041c-0.201-0.506-0.428-0.909-0.656-1.287
		c-0.023,1.337-0.049,2.673-0.15,3.859c-0.1,1.21-0.277,2.27-0.555,3.303c-0.252,1.009-0.604,1.993-0.98,2.976
		c0.25-1.361,0.502-2.723,0.652-4.186c0.152-1.488,0.227-3.077,0.178-4.59c-0.025-1.488-0.178-2.85-0.428-4.06
		c-0.252-1.236-0.631-2.269-1.01-3.076c-0.402-0.808-0.832-1.388-1.26-1.615c-0.402-0.252-0.807-0.125-1.234,0
		c0.202,1.236,0.379,2.472,0.504,3.632C83.696,115.532,83.722,116.617,83.772,117.702L83.772,117.702z M78,117.424
		c-0.024,0.53-0.05,1.059,0.076,1.589c0.101,0.53,0.327,1.034,0.705,1.336c0.352,0.303,0.833,0.403,1.286,0.353
		c0.453-0.076,0.883-0.302,1.284-0.53c-1.107,1.539-2.219,3.052-3.024,3.984c-0.78,0.934-1.285,1.311-1.764,1.413
		c-0.454,0.1-0.907-0.051-1.185-0.555c-0.252-0.479-0.327-1.287-0.101-2.27c0.202-0.983,0.706-2.143,1.21-3.076
		C76.991,118.761,77.497,118.08,78,117.424L78,117.424z M65.398,126.35c-0.025,0.53-0.05,1.059,0.1,1.489
		c0.151,0.403,0.479,0.731,0.983,0.933c0.479,0.177,1.109,0.253,1.688,0.202c0.556-0.05,1.06-0.227,1.563-0.404
		c-0.228,0.378-0.454,0.732-0.781,1.008c-0.303,0.277-0.706,0.455-1.059,0.53c-0.327,0.101-0.606,0.076-0.856,0.076
		c0.05,0.276,0.1,0.554,0.276,0.756c0.202,0.227,0.555,0.378,0.933,0.354c0.354,0,0.73-0.177,1.06-0.354
		c0.302-0.177,0.529-0.378,0.78-0.554c-0.277,0.63-0.554,1.286-0.983,2.396c-0.453,1.083-1.083,2.648-1.688,4.211
		c1.084-0.832,2.168-1.64,3.151-2.573c0.958-0.958,1.789-1.992,2.596-3.05c0.781-1.06,1.487-2.119,2.218-3.178
		c-0.654-0.177-1.311-0.378-1.739-0.908c-0.403-0.555-0.554-1.462-0.227-2.824c0.327-1.387,1.135-3.228,2.092-4.791
		c0.983-1.538,2.118-2.799,3.252-4.035c-0.177,0.756-0.328,1.487-0.277,2.168c0.05,0.707,0.277,1.336,0.73,1.715
		c0.453,0.378,1.108,0.504,1.74,0.151c0.654-0.379,1.284-1.236,1.94-2.093c-0.051-1.261-0.075-2.522-0.253-3.707
		c-0.177-1.185-0.504-2.294-0.807-3.051c-0.327-0.781-0.63-1.236-0.933-1.538c-0.302-0.328-0.604-0.53-0.882-0.706
		c-0.327,1.21-0.681,2.445-1.235,3.732c-0.555,1.286-1.36,2.623-2.394,4.061c-1.033,1.437-2.319,2.924-3.251,4.136
		c-0.959,1.185-1.589,2.067-2.118,2.898c-0.53,0.833-0.957,1.615-1.461,2.17c-0.479,0.554-1.01,0.908-1.588,1.083
		c-0.556,0.176-1.136,0.176-1.563,0.076C65.953,126.653,65.675,126.502,65.398,126.35L65.398,126.35z M74.899,130.713
		c-0.529,1.337-1.083,2.647-1.789,4.009c-0.706,1.336-1.587,2.698-2.318,3.707c-0.73,1.009-1.312,1.689-1.84,2.27
		c-0.529,0.58-1.009,1.059-1.487,1.361c-0.454,0.303-0.882,0.428-1.21,0.353c-0.327-0.076-0.53-0.379-0.605-0.782
		c-0.101-0.403-0.049-0.908,0.126-1.412c0.178-0.479,0.504-0.958,1.009-1.438c0.503-0.504,1.186-1.033,1.865-1.537
		c0.706-0.53,1.361-1.059,2.092-1.715c0.706-0.63,1.437-1.412,2.143-2.245C73.59,132.453,74.246,131.596,74.899,130.713
		L74.899,130.713z M71.271,139.489c-0.43,0.909-0.856,1.84-1.236,2.723c-0.377,0.908-0.706,1.791-0.933,2.498
		c-0.227,0.68-0.353,1.184-0.479,1.689c-0.378,0.076-0.781,0.151-1.108,0.101c-0.328-0.076-0.58-0.277-0.706-0.58
		c-0.126-0.328-0.102-0.782,0.051-1.186c0.125-0.403,0.377-0.781,1.133-1.665C68.75,142.212,70.011,140.851,71.271,139.489
		L71.271,139.489z M87.502,114.196c0.631,1.413,1.285,2.824,1.939,3.959c0.656,1.134,1.336,1.993,2.094,2.824
		c0.781,0.832,1.611,1.614,2.848,2.245c1.211,0.605,2.797,1.059,4.184,1.26c1.387,0.202,2.572,0.127,3.682-0.05
		c1.107-0.176,2.141-0.454,3.047-0.605c0.91-0.126,1.715-0.126,2.549,0.025c0.83,0.177,1.713,0.479,2.316,0.757
		c0.605,0.277,0.934,0.504,1.287,0.73c-0.732,0.151-1.463,0.302-2.344,0.353c-0.908,0.077-1.992,0.05-2.799,0
		c-0.807-0.051-1.336-0.125-2.041-0.101c-0.73,0-1.641,0.126-2.42,0.278c-0.781,0.126-1.438,0.302-2.445,0.227
		s-2.344-0.354-3.529-0.833c-1.209-0.504-2.242-1.21-3.148-1.992c-0.883-0.782-1.59-1.665-2.295-2.648
		c-0.68-0.958-1.311-2.067-1.789-3.152C88.133,116.39,87.831,115.306,87.502,114.196L87.502,114.196z M96.803,128.872
		c-1.16,1.06-2.293,2.093-3.303,3.329c-1.033,1.21-1.889,2.598-2.645,3.783c-0.783,1.184-1.438,2.143-2.27,2.824
		c-0.832,0.706-1.842,1.109-2.621,1.336c-0.783,0.201-1.336,0.201-1.916,0.227c0.553-0.781,1.083-1.589,1.916-2.547
		c0.832-0.983,1.965-2.143,3.174-3.278c1.236-1.109,2.598-2.194,3.883-3.152C94.307,130.46,95.567,129.679,96.803,128.872
		L96.803,128.872z M76.009,156.207c0.832-1.135,1.688-2.294,2.496-3.253c0.831-0.958,1.613-1.739,2.394-2.497
		c0.379-0.958,0.731-1.916,1.235-2.999c0.504-1.085,1.135-2.295,1.689-3.304s1.058-1.842,1.562-2.673
		c-0.403,0.05-0.783,0.076-1.109,0.101c-0.328,0-0.604-0.025-0.883-0.025c-0.554,1.033-1.109,2.068-1.764,3.354
		c-0.655,1.261-1.411,2.749-2.117,4.135c-0.706,1.388-1.361,2.698-1.941,3.857C76.991,154.089,76.488,155.148,76.009,156.207
		L76.009,156.207z M73.967,163.091c1.212-1.613,2.444-3.201,3.907-4.917c1.437-1.715,3.126-3.53,4.89-5.32
		c1.789-1.791,3.629-3.505,5.52-5.245c1.916-1.715,3.857-3.43,5.545-5.019c1.664-1.588,3.076-3.05,4.26-4.514
		c1.158-1.437,2.117-2.849,2.975-4.186c0.832-1.311,1.561-2.547,2.168-3.757c0.578-1.21,1.033-2.396,1.486-3.582
		c-0.934,0.077-1.865,0.151-2.898,0.505c-1.008,0.377-2.092,1.009-3.326,2.068c-1.262,1.033-2.672,2.497-3.807,3.958
		c-1.135,1.487-2.041,2.975-2.799,4.111c-1.639,2.396-3.326,3.505-4.99,4.059c-0.83,1.362-1.688,2.724-2.394,3.984
		c-0.706,1.261-1.26,2.422-1.815,3.555c1.136-0.755,2.27-1.537,3.68-2.647c1.412-1.109,3.102-2.572,4.789-4.236
		c1.689-1.689,3.377-3.606,5.242-5.925c1.84-2.346,3.83-5.094,5.85-7.868c-1.211,2.219-2.396,4.438-4.035,6.809
		c-1.639,2.395-3.703,4.942-5.469,6.859c-1.764,1.942-3.201,3.278-5.09,4.866c-1.867,1.589-4.185,3.456-5.949,5.094
		c-1.79,1.664-3.026,3.126-4.009,4.413c-0.982,1.286-1.688,2.371-2.269,3.48C74.849,160.771,74.396,161.932,73.967,163.091
		L73.967,163.091z M100.936,136.034c1.312-1.488,2.621-3,3.631-4.362c1.031-1.362,1.764-2.598,2.494-3.859
		c-0.102,0.707-0.227,1.387-0.529,2.22c-0.326,0.832-0.832,1.79-1.336,2.749c1.084-1.311,2.143-2.648,3.201-3.958
		c0.48,0.428,0.957,0.856,1.512,1.563c0.58,0.706,1.211,1.665,1.74,2.622c0.529,0.958,0.932,1.917,1.311,2.85
		c-0.125-0.756-0.252-1.488-0.529-2.42c-0.303-0.934-0.732-2.043-1.234-2.876c-0.506-0.832-1.061-1.412-1.639-1.967
		c0.68,0.454,1.359,0.909,2.016,1.614c0.631,0.731,1.262,1.715,2.016,3.203c0.756,1.462,1.664,3.43,2.572,5.624
		s1.814,4.64,2.697,7.111c-0.178-1.387-0.354-2.748-0.631-4.084c-0.277-1.361-0.656-2.674-1.135-4.11
		c-0.479-1.413-1.084-2.951-1.664-4.162c-0.578-1.21-1.158-2.093-1.662-2.798c-0.506-0.706-0.959-1.211-1.412-1.614
		c-0.43-0.403-0.906-0.731-1.361-1.059c0.756,0.378,1.512,0.756,2.268,1.336c0.756,0.604,1.488,1.412,2.119,2.32
		c0.629,0.882,1.158,1.866,1.639,3c0.504,1.135,0.932,2.422,1.385,3.708c0.076-1.134,0.15-2.269,0.076-3.48
		c-0.076-1.235-0.328-2.571-0.756-3.681c-0.404-1.135-0.984-2.017-1.715-2.799c-0.705-0.756-1.562-1.386-2.242-1.816
		c-0.705-0.403-1.262-0.58-1.766-0.604c-0.529-0.051-1.031,0.076-1.611,0.177c-0.605,0.101-1.285,0.201-1.916,0.226
		c-0.656,0.026-1.285-0.024-1.738-0.075c-0.48-0.05-0.783-0.077-1.109-0.101c-0.102,0.403-0.203,0.833-0.379,1.438
		c-0.201,0.604-0.504,1.386-0.934,2.32c-0.453,0.958-1.059,2.017-1.662,3C102.071,134.269,101.491,135.151,100.936,136.034
		L100.936,136.034z M71.045,216.225c0-1.236-0.051-2.345-0.127-3.254c-0.076-0.883-0.177-1.562-0.278-2.219
		c0.202,0.202,0.429,0.377,0.758,0.555c0.301,0.177,0.729,0.302,1.033,0.378c0.302,0.075,0.503,0.075,0.706,0.101
		c-0.38-0.276-0.757-0.554-1.236-1.033c-0.453-0.506-0.982-1.235-1.386-2.271c-0.403-1.06-0.655-2.445-0.73-4.009
		c-0.051-1.588,0.125-3.379,0.529-5.396c0.378-1.992,1.008-4.212,2.091-6.96c1.085-2.724,2.647-5.926,4.084-8.951
		c1.462-3.002,2.798-5.775,4.587-9.709c1.815-3.96,4.084-9.079,5.771-13.238c1.689-4.162,2.824-7.364,3.957-10.567
		c-1.434,2.976-2.873,5.926-4.209,8.65c-1.31,2.698-2.518,5.169-3.88,7.918c-1.386,2.749-2.949,5.774-4.437,8.7
		c-1.486,2.95-2.923,5.8-4.26,8.726c-1.334,2.925-2.62,5.926-3.882,8.927c-0.251-0.304-0.504-0.606-0.63-1.036
		c-0.126-0.427-0.126-1.008,0.076-1.915c0.177-0.909,0.529-2.118,1.21-4.036c0.68-1.889,1.688-4.462,2.948-7.312
		c1.261-2.849,2.798-6.001,4.184-8.776c1.387-2.773,2.647-5.193,3.884-7.615c-0.683,0.682-1.362,1.363-2.269,2.624
		c-0.884,1.234-1.992,3.024-3.128,5.042c-1.133,2.019-2.317,4.262-3.401,6.506c-1.083,2.244-2.066,4.514-2.722,6.254
		c-0.656,1.741-0.959,2.976-1.261,4.213c-0.277-0.479-0.555-0.959-0.581-1.792c-0.05-0.806,0.153-1.991,0.403-3.278
		c0.229-1.286,0.53-2.647,0.935-4.16c0.402-1.488,0.907-3.127,1.537-4.993s1.362-3.984,2.092-6.077
		c1.386-1.842,2.798-3.656,4.587-5.825c1.789-2.143,3.958-4.641,5.847-6.683c1.892-2.067,3.48-3.682,4.966-5.043
		c1.488-1.337,2.848-2.446,4.311-3.858c1.486-1.387,3.1-3.102,4.158-4.161s1.611-1.463,2.621-2.42
		c1.033-0.983,2.545-2.522,4.057-4.036c-0.881,1.69-1.738,3.379-2.695,5.371c-0.959,2.018-1.99,4.363-2.898,6.405
		c-0.881,2.069-1.613,3.859-2.344,5.624c1.562-2.547,3.102-5.119,4.664-7.666c-0.48,2.319-0.984,4.615-1.842,8.397
		c-0.883,3.782-2.117,9.027-3.25,13.742c-1.162,4.69-2.193,8.853-3.227,13.165c-1.01,4.312-2.018,8.8-2.773,12.481
		c-0.73,3.683-1.234,6.557-1.713,9.456c0.275-1.084,0.578-2.168,1.713-6.732c1.16-4.54,3.15-12.559,4.99-19.745
		c1.867-7.212,3.553-13.616,4.814-19.063c1.26-5.448,2.117-9.936,2.949-14.45c-0.076,2.899-0.178,5.8-0.328,8.271
		c-0.125,2.496-0.328,4.59-0.756,7.213c-0.404,2.622-1.035,5.8-1.562,8.246c-0.555,2.445-1.008,4.16-1.209,5.345
		c-0.178,1.161-0.102,1.766,0.15,2.244c0.25,0.505,0.68,0.884,1.109,1.262c-0.229,2.824-0.455,5.674-0.656,8.573
		c-0.203,2.9-0.377,5.826-0.555,8.75c-2.268,3.354-4.537,6.683-6.754,9.835c-2.219,3.178-4.387,6.153-6.125,8.372
		c-1.74,2.22-3.025,3.682-4.184,5.497c-1.16,1.791-2.168,3.934-3.479,5.852c-1.285,1.915-2.848,3.606-4.159,4.84
		c-1.311,1.236-2.369,2.044-2.847,1.994c-0.506-0.026-0.404-0.936-0.303-2.296c0.101-1.388,0.227-3.228,0.303-4.816
		C71.045,218.771,71.068,217.434,71.045,216.225L71.045,216.225z M101.29,165.916c1.461-1.286,2.924-2.571,4.234-3.959
		c1.311-1.412,2.471-2.9,3.453-4.539c1.008-1.639,1.814-3.455,2.445-5.497c0.654-2.068,1.082-4.362,1.359-6.305
		c0.252-1.917,0.328-3.454,0.43-4.993c-0.354-1.236-0.707-2.446-1.008-3.404c-0.303-0.983-0.555-1.714-0.807-2.42
		c0.102,1.866,0.201,3.757,0.102,5.547c-0.076,1.817-0.355,3.556-0.707,5.17c-0.352,1.64-0.807,3.177-1.537,4.816
		c-0.758,1.64-1.789,3.379-2.822,5.119c0.83-2.169,1.688-4.337,2.344-6.405c0.654-2.093,1.107-4.085,1.334-6.203
		c0.252-2.143,0.252-4.413,0.203-6.153c-0.051-1.74-0.127-2.926-0.227-4.136c-0.203-0.454-0.43-0.908-0.707-1.337
		c-0.275-0.454-0.629-0.882-0.959-1.336c-1.158,2.018-2.316,4.01-3.125,5.422c-0.779,1.412-1.234,2.244-1.688,3.051
		c0.025,2.144,0.049,4.262,0,6.732c-0.051,2.472-0.201,5.271-0.453,8.095s-0.631,5.674-0.959,7.817
		C101.868,163.117,101.567,164.505,101.29,165.916L101.29,165.916z M114.194,164.454c0.883,0.882,1.766,1.765,2.723,2.596
		c0.957,0.833,1.965,1.59,3,2.346c0.352,2.598,0.705,5.195,1.109,8.523c0.377,3.354,0.779,7.415,1.082,11.625
		c0.303,4.211,0.529,8.573,0.781,12.936c-0.301-0.276-0.604-0.579-1.033-0.933c-0.428-0.352-1.008-0.756-1.588-1.159
		c-0.781-6.305-1.562-12.609-2.217-17.249c-0.656-4.665-1.186-7.64-1.664-9.96c-0.455-2.295-0.857-3.959-1.211-5.296
		C114.825,166.546,114.497,165.488,114.194,164.454L114.194,164.454z M111.774,155.249c-0.15,0.504-0.303,1.009-0.326,1.539
		c-0.051,0.504,0.023,1.059,0.352,1.841c0.303,0.807,0.883,1.84,1.764,2.975c0.857,1.109,2.043,2.295,3.102,3.305
		c1.059,1.008,2.041,1.814,2.998,2.621c-0.125-0.58-0.227-1.186-0.352-1.765c-0.857-0.782-1.74-1.563-2.596-2.396
		c-0.832-0.857-1.639-1.74-2.371-2.773c-0.756-1.01-1.436-2.144-1.865-3.077C112.051,156.61,111.924,155.931,111.774,155.249
		L111.774,155.249z M114.245,142.868c0.555,1.992,1.107,3.959,1.715,6.279c0.605,2.294,1.258,4.917,1.789,7.54
		c0.529,2.648,0.957,5.296,1.359,7.943c-1.158-1.285-2.344-2.598-3.275-3.808c-0.934-1.236-1.613-2.421-2.168-3.53
		c-0.529-1.109-0.906-2.168-0.932-3.229c-0.025-1.059,0.328-2.118,0.629-3.429c0.277-1.337,0.555-2.901,0.707-4.236
		C114.219,145.062,114.219,143.953,114.245,142.868L114.245,142.868z M96.325,198.446c-0.025,10.817-0.025,21.661-0.025,27.611
		c-0.025,5.977-0.025,7.036,0.201,7.768c0.227,0.707,0.705,1.084,1.588,1.488c0.906,0.428,2.244,0.907,3.58,1.387
		c-0.934,1.612-1.865,3.228-3.176,4.716c-1.287,1.513-2.926,2.875-4.992,4.387c-2.066,1.513-4.561,3.153-6.627,4.463
		c-2.068,1.287-3.732,2.245-5.395,3.178c0.379-3.126,0.731-6.252,1.059-9.254c0.327-3.001,0.58-5.9,0.856-8.801
		c-0.729,1.665-1.436,3.304-2.092,5.951c-0.653,2.647-1.26,6.305-1.739,8.926c-0.453,2.624-0.806,4.237-1.235,5.675
		c-0.453,1.411-1.033,2.648-1.789,3.782c-0.756,1.11-1.689,2.144-2.622,3.053c-0.931,0.906-1.863,1.714-2.797,2.521
		c0.126-1.916,0.228-3.833,0.202-5.901c-0.025-2.067-0.177-4.286-0.453-6.254c-0.278-1.939-0.682-3.631-1.033-5.546
		c-0.354-1.918-0.681-4.062-0.656-6.432c0.024-2.371,0.379-4.992,0.781-6.86c0.404-1.865,0.832-2.975,1.865-4.059
		s2.621-2.093,4.007-3.403c1.387-1.312,2.521-2.926,3.681-4.515c-0.253,2.748-0.529,5.522-0.983,9.079
		c-0.429,3.555-1.059,7.917-1.688,12.279c1.009-2.95,2.016-5.9,2.822-9.455c0.808-3.557,1.388-7.741,1.865-10.869
		c0.454-3.126,0.782-5.221,1.336-6.81c0.556-1.612,1.336-2.724,2.118-3.833c-0.075,2.17-0.177,4.364-0.504,7.415
		c-0.329,3.076-0.908,7.035-1.488,10.994c0.757-2.571,1.539-5.118,2.192-8.068c0.63-2.978,1.16-6.331,1.488-8.523
		c0.328-2.221,0.453-3.279,0.58-4.364c1.689-2.116,3.377-4.261,4.891-6.227C93.653,202.001,94.989,200.211,96.325,198.446
		L96.325,198.446z M120.319,201.977c0.555,0.353,1.109,0.706,1.514,1.059c0.426,0.354,0.68,0.731,0.957,1.083
		c0.402,7.138,0.83,14.274,1.234,21.411c-0.404-0.682-0.832-1.361-1.262-1.941c-0.428-0.581-0.881-1.061-1.334-1.538
		C121.049,215.367,120.696,208.684,120.319,201.977L120.319,201.977z M115.428,221.116c1.539-0.934,3.102-1.866,4.639-2.8
		c0.076,1.212,0.176,2.421,0.252,3.606C118.68,221.67,117.042,221.394,115.428,221.116L115.428,221.116z M97.836,231.984
		c1.891-1.514,3.805-3.025,6.15-4.816c2.344-1.791,5.09-3.859,7.812-5.673c2.697-1.792,5.369-3.355,8.014-4.893
		c-0.225-3.658-0.479-7.313-0.83-11.474c-0.379-4.136-0.883-8.751-1.537-14.071c-0.656-5.296-1.438-11.272-2.219-15.812
		c-0.807-4.539-1.562-7.641-2.344-10.313c-0.756-2.647-1.512-4.892-2.268-7.161c-0.506,0.983-0.982,1.967-1.865,3.202
		c-0.857,1.21-2.092,2.724-3.402,3.984c-1.287,1.261-2.646,2.27-3.453,3.152c-0.832,0.882-1.084,1.614-1.061,2.421
		c0.051,0.806,0.404,1.714,0.178,7.035c-0.201,5.346-0.982,15.13-1.59,24.939C98.793,212.314,98.315,222.149,97.836,231.984
		L97.836,231.984z M103.534,230.572c0.049,1.688,0.1,3.404,0.15,5.094c-0.68-0.201-1.361-0.378-2.066-0.604
		s-1.412-0.479-1.916-0.683c-0.479-0.227-0.707-0.378-0.934-0.529C100.356,232.74,101.944,231.656,103.534,230.572L103.534,230.572z
		 M65.247,285.217h63.363v1.287H65.247V285.217z M128.61,284.209H65.247v-6.633h63.363V284.209z M124.325,275.912
		c-0.654-1.009-1.334-1.992-1.891-3.152c-0.578-1.186-1.031-2.547-1.662-5.219c-0.605-2.674-1.361-6.684-2.117-11.854
		c-0.756-5.169-1.537-11.498-2.143-17.148c-0.604-5.672-1.057-10.665-1.486-15.657c-1.664,1.109-3.328,2.219-4.967,3.327
		c0.027,2.599,0.051,5.17,0.051,7.515c0,2.346-0.023,4.439-0.051,6.507c-0.301-2.446-0.629-4.917-0.83-7.137
		c-0.203-2.219-0.328-4.212-0.43-6.178c-1.008,0.706-2.016,1.412-2.998,2.118c0.102,3.631,0.201,7.237,0.178,11.271
		c-0.053,4.01-0.254,8.398-0.529,11.777c-0.254,3.354-0.582,5.674-1.035,7.641c-0.455,1.993-1.008,3.632-1.562,5.271
		c0.352-2.798,0.73-5.599,1.008-8.221s0.453-5.068,0.555-8.348c0.076-3.277,0.076-7.362,0.051-11.447
		c-0.631,1.286-1.234,2.572-1.941,3.757c-0.73,1.161-1.537,2.218-2.318,3.278c-0.328,3.229-0.629,6.479-1.109,9.658
		c-0.453,3.177-1.082,6.33-1.588,8.876c-0.529,2.547-0.934,4.488-0.857,6.002s0.607,2.572,1.16,3.455
		c0.555,0.856,1.135,1.537,1.766,1.789c0.629,0.254,1.336,0.102,1.789-0.2c0.479-0.278,0.705-0.706,0.805-1.312
		c0.078-0.605,0.025-1.412-0.352-1.991c-0.377-0.58-1.084-0.933-1.764-1.286c0.326,0.051,0.654,0.075,1.084,0.227
		c0.428,0.127,0.982,0.354,1.436,0.833s0.832,1.209,1.109,1.865c0.252,0.682,0.43,1.285,0.807,1.688
		c0.402,0.431,1.059,0.683,1.613,0.683s1.008-0.252,1.234-1.061c0.203-0.831,0.15-2.219-0.027-4.515
		c-0.174-2.292-0.453-5.472-0.604-7.941c-0.15-2.471-0.176-4.212-0.15-5.7c0.051-1.487,0.125-2.723,0.227-3.957
		c0.201,2.143,0.404,4.312,0.758,7.137c0.326,2.849,0.83,6.353,1.309,9.403c0.504,3.054,0.982,5.649,1.463,8.247
		C115,275.912,119.663,275.912,124.325,275.912L124.325,275.912z M122.286,237.482c0.377,0.277,0.779,0.554,1.158,1.008
		c0.377,0.455,0.756,1.06,1.01,1.589c0.25,0.529,0.402,0.958,0.527,1.361c-0.176-1.562-0.354-3.151-0.555-5.244
		c-0.227-2.094-0.453-4.691-0.656-6.307c-0.199-1.637-0.377-2.292-0.652-2.924c-0.277-0.655-0.656-1.286-1.035-1.815
		c-0.377-0.555-0.756-0.982-1.16-1.438C121.377,228.303,121.833,232.893,122.286,237.482L122.286,237.482z M127.477,275.912
		c-0.756-0.832-1.514-1.663-2.117-2.849c-0.605-1.159-1.035-2.675-1.539-5.852c-0.504-3.151-1.059-7.993-1.713-15.534
		c-0.68-7.563-1.461-17.828-2.244-28.116c-0.553-0.05-1.107-0.126-1.586-0.177c-0.506-0.05-0.959-0.1-1.412-0.151
		c-0.051,1.211-0.127,2.396,0.025,5.674c0.15,3.278,0.529,8.6,1.186,14.374c0.629,5.749,1.512,11.928,2.293,16.517
		c0.781,4.59,1.436,7.565,2.041,9.658c0.58,2.118,1.084,3.329,1.588,4.263c0.479,0.933,0.957,1.562,1.41,2.193
		C126.09,275.912,126.795,275.912,127.477,275.912L127.477,275.912z M90.401,275.912c0.934-1.488,1.865-2.976,2.746-5.018
		c0.91-2.068,1.766-4.717,2.371-7.39c0.604-2.672,0.982-5.421,1.336-8.371c0.352-2.95,0.68-6.127,1.008-9.331
		c-0.957,0.757-1.939,1.488-2.824,2.118c-0.855,0.631-1.637,1.136-2.418,1.639c-0.404,3.001-0.809,6.002-1.234,8.978
		c-0.43,2.951-0.883,5.901-1.412,8.146c-0.555,2.271-1.211,3.833-1.84,5.422c0.277-2.219,0.553-4.413,0.83-6.909
		c0.277-2.497,0.557-5.296,0.783-7.742c0.252-2.445,0.479-4.563,0.705-6.683c-1.588,1.008-3.178,2.018-4.713,3.002
		c-1.513,0.982-2.975,1.915-4.411,2.849c-0.177,2.271-0.328,4.539-0.606,6.684c-0.276,2.118-0.68,4.135-1.133,5.824
		c-0.479,1.689-1.009,3.076-1.538,4.438c0.429-2.169,0.857-4.338,1.159-6.683c0.303-2.32,0.505-4.817,0.631-6.455
		c0.102-1.614,0.125-2.371,0.151-3.127c-1.563,3.228-5.066,7.614-7.309,9.532c-0.354,1.562-0.455,2.042-0.935,3.504
		c-0.504,1.488-1.134,2.851-1.663,3.757c-0.554,0.909-1.033,1.362-1.486,1.816C75.858,275.912,83.117,275.912,90.401,275.912
		L90.401,275.912z M59.575,65.679c0.354,0.378,0.706,0.756,1.083,0.932c0.404,0.177,0.808,0.152,1.261-0.125
		c0.429-0.277,0.857-0.807,1.261-1.639c0.378-0.832,0.682-1.967,0.782-2.925c0.075-0.983-0.076-1.84-0.227-2.899
		c-0.126-1.059-0.278-2.37-0.429-3.656c0.176-0.404,0.353-0.833,0.579-1.564c0.2-0.707,0.479-1.765,0.756-2.799
		c-0.149,1.084-0.276,2.168-0.429,3.126c-0.15,0.983-0.327,1.867-0.352,2.496c0,0.631,0.149,1.034,0.327,2.094
		c0.152,1.033,0.327,2.724,0.706,4.942c0.377,2.245,0.957,4.993,1.663,7.894c0.729,2.874,1.562,5.901,2.292,8.8
		c0.732,2.875,1.362,5.648,1.79,7.742c0.429,2.094,0.682,3.505,1.16,5.044c0.454,1.538,1.16,3.202,1.84,4.866
		c0,1.084,0,2.194-0.328,4.287c-0.352,2.094-1.008,5.169-1.737,7.01c-0.757,1.84-1.539,2.421-2.169,2.749
		c-0.629,0.353-1.108,0.429-1.487-0.252c-0.402-0.681-0.704-2.118-1.159-4.236c-0.428-2.12-1.008-4.918-1.437-7.187
		c-0.453-2.271-0.73-3.96-0.856-5.069c-0.125-1.109-0.076-1.588-0.303-2.446c-0.228-0.832-0.706-2.042-1.135-3.606
		c-0.428-1.588-0.781-3.555-1.158-6.052c-0.379-2.496-0.782-5.548-1.109-7.994c-0.328-2.446-0.605-4.287-0.781-5.774
		C59.778,67.948,59.677,66.813,59.575,65.679L59.575,65.679z M81.177,143.801c-1.211,2.068-2.396,4.136-3.656,6.506
		c-1.233,2.396-2.52,5.094-3.604,7.439c-1.083,2.346-1.938,4.337-2.746,6.052c-0.806,1.715-1.538,3.127-2.143,3.859
		c-0.604,0.73-1.109,0.78-1.336,0.251c-0.227-0.504-0.201-1.589,0.102-3.052c0.327-1.438,0.957-3.253,1.839-5.144
		c0.883-1.892,1.992-3.908,3.176-5.75c1.159-1.866,2.345-3.556,3.73-5.244C77.95,147.055,79.562,145.44,81.177,143.801
		L81.177,143.801z M88.083,104.16c0.15,0.152,0.277,0.303,0.428,0.454c0.127,0.125,0.252,0.227,0.379,0.327
		c-0.807,2.269-1.615,4.539-2.42,6.809c-0.178-0.302-0.328-0.631-0.504-0.908c-0.178-0.251-0.354-0.504-0.529-0.731
		C86.319,108.12,87.2,106.152,88.083,104.16L88.083,104.16z M99.625,94.123c0.252,0.581,0.504,1.186,0.883,1.766
		c0.377,0.555,0.857,1.084,1.537,1.463c0.705,0.352,1.588,0.529,2.295,0.58c0.68,0.075,1.209,0.025,1.713-0.026
		c0.227,0.228,0.453,0.455,0.629,0.63c0.176,0.177,0.328,0.303,0.479,0.404c0.051,2.371,0.127,4.716,0.051,6.532
		c-0.051,1.815-0.252,3.126-0.578,4.161c-0.328,1.033-0.756,1.79-1.338,2.446c-0.553,0.63-1.209,1.16-1.914,1.613
		c-0.705,0.454-1.461,0.833-2.242,1.059c-0.807,0.227-1.615,0.302-2.371,0.227c-0.754-0.051-1.438-0.227-2.016-0.454
		c-0.604-0.227-1.109-0.479-1.562-0.883c-0.479-0.379-0.934-0.908-1.336-1.412c-0.43-0.504-0.807-1.034-1.133-1.538
		c-0.328-0.504-0.607-1.008-0.783-1.563c-0.15-0.53-0.227-1.11-0.252-1.589c-0.025-0.504,0-0.934,0.051-1.311
		c0.025-0.379,0.074-0.732,0.102-1.06c-0.178-0.403-0.379-0.78-0.555-1.311c-0.152-0.504-0.252-1.161-0.303-2.042
		c-0.049-0.883-0.025-2.017-0.025-3.128c0.756-0.202,1.512-0.403,2.318-0.781c0.832-0.377,1.715-0.882,2.596-1.412
		c0.404-0.05,0.807-0.101,1.26-0.201c0.455-0.101,0.934-0.253,1.338-0.53c0.402-0.253,0.705-0.631,0.881-0.908
		C99.524,94.552,99.577,94.325,99.625,94.123L99.625,94.123z M105.348,122.795c-0.43,0.076-0.832,0.151-1.463,0.329
		c-0.654,0.151-1.512,0.403-2.443,0.529c-0.934,0.125-1.941,0.101-2.975-0.052c-1.008-0.149-2.068-0.403-2.9-0.706
		c-0.805-0.302-1.385-0.605-1.789-0.857s-0.631-0.403-0.83-0.58c0-3.153,0-6.305,0-9.457c0.326,0.479,0.68,0.958,1.133,1.438
		c0.453,0.453,1.008,0.958,1.715,1.387c0.705,0.403,1.562,0.782,2.418,0.933c0.857,0.177,1.74,0.151,2.572,0
		c0.807-0.151,1.588-0.453,2.166-0.731c0.605-0.277,1.061-0.555,1.412-0.833c0.379-0.277,0.682-0.579,0.984-0.883
		C105.348,116.492,105.348,119.643,105.348,122.795L105.348,122.795z M106.633,122.745c1.334,0.05,2.947,0.479,3.932,0.883
		c-0.076-0.353-0.152-0.706-0.303-1.185c-0.176-0.505-0.43-1.11-0.732-1.74c-0.377-0.806-1.057-2.244-1.334-3.102
		c-0.328,0.479-1.008,0.731-1.562,0.58C106.633,119.896,106.633,121.055,106.633,122.745L106.633,122.745z M88.913,115.735
		c0.328,0.706,0.682,1.412,1.033,2.042c0.355,0.605,0.732,1.16,1.059,1.588c0.33,0.43,0.631,0.783,0.934,1.11
		c0-3.026,0-6.053,0-9.103c-0.176,0.024-0.326,0.076-0.529,0.049c-0.201-0.049-0.428-0.125-0.631-0.251
		c-0.201-0.126-0.326-0.328-0.477-0.505c-0.053,0.606-0.102,1.211-0.229,1.893c-0.127,0.705-0.326,1.462-0.529,1.992
		C89.317,115.104,89.116,115.407,88.913,115.735L88.913,115.735z M110.413,98.259c-0.023,0.327-0.1,0.555-0.277,0.706
		c-0.176,0.152-0.453,0.227-0.729,0.227c-0.254,0-0.506-0.05-0.783-0.201c-0.303-0.126-0.629-0.378-0.908-0.706
		c-0.275-0.353-0.477-0.832-0.705-1.286c-0.705-0.025-1.436-0.025-2.016-0.151c-0.58-0.101-1.008-0.353-1.438-0.707
		c-0.428-0.353-0.832-0.857-1.16-1.362c-0.352-0.505-0.654-1.009-0.955-1.387c-0.303-0.353-0.607-0.58-0.984-0.681
		c-0.352-0.125-0.756-0.125-1.109,0c-0.379,0.101-0.654,0.329-1.059,0.681c-0.377,0.328-0.857,0.808-1.486,1.312
		c-0.631,0.504-1.387,1.033-2.244,1.488c-0.83,0.454-1.738,0.857-2.545,1.16c-0.807,0.327-1.512,0.529-2.219,0.73
		c-0.176,0.504-0.354,0.983-0.555,1.438c-0.201,0.455-0.428,0.883-0.68,1.261c-0.252,0.404-0.555,0.756-0.756,0.857
		c-0.201,0.077-0.328-0.126-0.379-0.428c-0.076-0.302-0.1-0.706-0.025-1.059c0.051-0.328,0.176-0.606,0.303-0.882
		c-0.176-0.077-0.328-0.151-0.43-0.303c-0.098-0.151-0.125-0.403,0-0.755c0.127-0.354,0.43-0.808,1.01-1.463
		c0.58-0.631,1.463-1.438,2.494-2.143c1.033-0.732,2.193-1.337,3.453-1.792c1.234-0.453,2.572-0.781,3.906-0.882
		c1.338-0.102,2.697,0,3.883,0.202c1.211,0.202,2.244,0.479,3.252,0.958c1.008,0.454,1.967,1.11,2.797,1.816
		c0.809,0.681,1.488,1.437,2.168,2.168C110.338,97.503,110.413,97.932,110.413,98.259L110.413,98.259z M86.393,98.107
		c0,0.152-0.025,0.277,0,0.429c0.025,0.177,0.076,0.353,0.152,0.479c0.049,0.126,0.125,0.227,0.176,0.328
		c-0.1,0.354-0.201,0.681-0.201,1.135c-0.025,0.479,0.051,1.033,0.201,1.538c0.176,0.529,0.428,0.982,0.705,1.438
		c-0.855,2.068-1.715,4.135-2.571,6.203c-0.176-0.101-0.377-0.202-0.63-0.251c-0.252-0.051-0.529-0.051-0.78,0
		c-0.229,0.05-0.405,0.151-0.581,0.251c-0.075-0.428-0.15-0.857-0.353-1.437c-0.201-0.58-0.554-1.312-0.907-1.816
		c-0.353-0.504-0.731-0.757-1.084-1.034c-0.075-0.58-0.151-1.186-0.302-1.766c-0.177-0.554-0.43-1.084-0.68-1.461
		c-0.279-0.404-0.556-0.656-0.782-0.833c-0.228-0.177-0.43-0.278-0.63-0.353c-0.076-1.085-0.378-1.942-0.731-2.522
		C80.396,98.309,83.394,98.209,86.393,98.107L86.393,98.107z"/>
	<path fill-rule="evenodd" clip-rule="evenodd" fill="#FFFFFF" d="M82.261,212.341c0.729-2.044,1.461-4.111,2.167-6.657
		c0.681-2.548,1.336-5.599,1.79-8.498c0.479-2.9,0.756-5.65,0.883-8.196c0.125-2.547,0.076-4.841-0.152-6.984
		c-0.203-2.144-0.605-4.086-1.008-6.053c0.051,2.572,0.074,5.17-0.051,8.447c-0.102,3.304-0.404,7.313-0.831,11.096
		c-0.456,3.808-1.06,7.39-1.539,10.162C83.016,208.432,82.638,210.399,82.261,212.341L82.261,212.341z"/>
	<path fill-rule="evenodd" clip-rule="evenodd" fill="#FFFFFF" d="M124.856,153.762l3.176,2.522c0.201,0.15,0.502,0.125,0.68-0.077
		l0,0c0.152-0.201,0.127-0.504-0.102-0.68l-3.176-2.522c-0.201-0.151-0.504-0.126-0.654,0.076l0,0
		C124.604,153.282,124.653,153.585,124.856,153.762L124.856,153.762z"/>
	<path fill-rule="evenodd" clip-rule="evenodd" fill="#FFFFFF" d="M121.2,156.031l6.225,4.942c0.254,0.202,0.633,0.177,0.834-0.102
		l0,0c0.203-0.252,0.152-0.63-0.102-0.831l-6.225-4.942c-0.252-0.202-0.631-0.151-0.832,0.101l0,0
		C120.899,155.451,120.95,155.829,121.2,156.031L121.2,156.031z"/>
	<path fill-rule="evenodd" clip-rule="evenodd" fill="#FFFFFF" d="M98.592,107.287c0.504-0.077,1.008-0.152,1.336-0.228
		c0.328-0.05,0.504-0.076,0.604-0.378c0.076-0.302,0.076-0.857,0.053-1.816c0-0.983,0-2.371,0.074-3.278
		c0.051-0.934,0.176-1.362,0.557-1.665c0.377-0.302,0.98-0.454,1.662-0.479c0.705-0.05,1.463,0.052,2.016,0.153
		c0.557,0.125,0.883,0.276,1.211,0.403c-0.654,0-1.287,0-1.865,0c-0.605,0-1.135,0.024-1.615,0.101
		c-0.453,0.05-0.83,0.151-1.082,0.529c-0.227,0.378-0.303,1.059-0.303,2.043c-0.023,0.958,0.025,2.244,0.051,3.075
		c0,0.808,0,1.161-0.176,1.362c-0.178,0.228-0.529,0.302-0.908,0.353c-0.379,0.025-0.783,0.025-1.059,0
		C98.87,107.412,98.743,107.338,98.592,107.287L98.592,107.287z"/>
	<path fill-rule="evenodd" clip-rule="evenodd" fill="#FFFFFF" d="M98.493,100.05c-0.531-0.228-1.061-0.453-1.766-0.554
		c-0.705-0.102-1.562-0.052-2.244,0.075c-0.654,0.151-1.133,0.353-1.586,0.555c0.855-0.051,1.738-0.075,2.67-0.101
		C96.5,100.024,97.508,100.05,98.493,100.05L98.493,100.05z"/>
	<path fill-rule="evenodd" clip-rule="evenodd" fill="#FFFFFF" d="M97.811,110.49c0.303,0.202,0.756,0.479,1.336,0.605
		c0.58,0.151,1.26,0.176,1.814,0.101s0.982-0.252,1.287-0.479c0.326-0.226,0.529-0.479,0.729-0.73
		c-0.957,0.075-1.889,0.126-2.871,0.126c-0.959,0-1.916-0.101-2.9-0.177C97.358,110.111,97.508,110.262,97.811,110.49L97.811,110.49
		z"/>
	<path fill-rule="evenodd" clip-rule="evenodd" fill="#FFFFFF" d="M101.995,102.067c0.354,0.176,0.682,0.378,1.16,0.479
		c0.453,0.101,1.031,0.101,1.537-0.025c0.504-0.126,0.934-0.353,1.361-0.605c-0.479-0.201-0.957-0.429-1.486-0.504
		s-1.135,0-1.562,0.126C102.551,101.664,102.272,101.866,101.995,102.067L101.995,102.067z"/>
	<path fill-rule="evenodd" clip-rule="evenodd" fill="#FFFFFF" d="M97.534,102.067c-0.354,0.176-0.705,0.378-1.158,0.479
		c-0.48,0.101-1.061,0.101-1.562-0.025c-0.506-0.126-0.934-0.377-1.389-0.605c0.479-0.227,0.959-0.429,1.512-0.504
		c0.529-0.076,1.137-0.025,1.59,0.126C96.954,101.664,97.258,101.866,97.534,102.067L97.534,102.067z"/>
</g>
<g>
	<path fill="none" stroke="#FFFFFF" stroke-width="1.5" stroke-miterlimit="10" d="M25.038,282.829c-2.374,0-4.3,1.925-4.3,4.298
		v1.065h8.6v-1.065C29.338,284.754,27.414,282.829,25.038,282.829z M37.629,282.829c-2.374,0-4.297,1.925-4.297,4.298v1.065h8.598
		v-1.065C41.93,284.754,40.003,282.829,37.629,282.829z M35.896,219.718l-4.275,8.244v55.563h6.008h6.011v-55.563l-4.276-8.244
		C38.604,218.251,36.656,218.251,35.896,219.718z M12.654,282.829c-2.376,0-4.299,1.925-4.299,4.298v1.065h8.599v-1.065
		C16.954,284.754,15.029,282.829,12.654,282.829z M10.92,219.718l-4.274,8.244v55.563h6.008h6.008v-55.563l-4.275-8.244
		C13.628,218.251,11.681,218.251,10.92,219.718z M32.04,146.308H18.036c-0.638,0-1.156,0.518-1.156,1.156v42.374
		c0,0.638,0.518,1.156,1.156,1.156H32.04c0.64,0,1.158-0.519,1.158-1.156v-42.374C33.197,146.826,32.679,146.308,32.04,146.308z
		 M32.279,195.55H17.798c-0.506,0-0.917,0.411-0.917,0.92v26.386c0,0.505,0.412,0.919,0.917,0.919h14.481
		c0.506,0,0.918-0.414,0.918-0.919V196.47C33.197,195.961,32.785,195.55,32.279,195.55z M32.756,101.622H17.32l1.617,6.027h12.201
		L32.756,101.622z M32.756,92.068l-5.893-17.589c-0.586-1.753-3.064-1.753-3.651,0L17.32,92.068v9.554h15.436V92.068z
		 M31.139,107.649H18.938v38.66h12.201V107.649z"/>
</g>
<line fill="none" stroke="#FFFFFF" stroke-width="1.5" stroke-miterlimit="10" x1="18.754" y1="190.897" x2="18.754" y2="195.683"/>
<line fill="none" stroke="#FFFFFF" stroke-width="1.5" stroke-miterlimit="10" x1="31.12" y1="190.897" x2="31.12" y2="195.683"/>
<line fill="none" stroke="#FFFFFF" stroke-width="2" stroke-miterlimit="10" x1="162.333" y1="73" x2="162.333" y2="288"/>
<line fill="none" stroke="#FFFFFF" stroke-width="2" stroke-miterlimit="10" x1="154.333" y1="73" x2="170.333" y2="73"/>
<line fill="none" stroke="#FFFFFF" stroke-width="2" stroke-miterlimit="10" x1="154.333" y1="288" x2="170.333" y2="288"/>
</svg>
