<?xml version="1.0" encoding="utf-8"?>
<!-- Generator: Adobe Illustrator 16.0.0, SVG Export Plug-In . SVG Version: 6.00 Build 0)  -->
<!DOCTYPE svg PUBLIC "-//W3C//DTD SVG 1.1//EN" "http://www.w3.org/Graphics/SVG/1.1/DTD/svg11.dtd">
<svg version="1.1" id="Layer_1" xmlns="http://www.w3.org/2000/svg" xmlns:xlink="http://www.w3.org/1999/xlink" x="0px" y="0px"
	 width="300px" height="300px" viewBox="0 0 300 300" enable-background="new 0 0 300 300" xml:space="preserve">
<g>
	<path fill="#FFFFFF" d="M149.105,259.991c-30.238,0-58.665-11.774-80.046-33.156c-21.381-21.381-33.156-49.809-33.156-80.047
		c0-30.236,11.775-58.664,33.156-80.045c21.381-21.381,49.809-33.156,80.046-33.156c30.237,0,58.665,11.774,80.045,33.156
		c21.382,21.381,33.157,49.809,33.157,80.045c0,30.238-11.775,58.666-33.157,80.047C207.77,248.217,179.342,259.991,149.105,259.991
		z M149.105,39.222c-59.313,0-107.568,48.254-107.568,107.566c0,59.312,48.254,107.568,107.568,107.568
		c59.313,0,107.568-48.256,107.568-107.568C256.673,87.476,208.418,39.222,149.105,39.222z"/>
	<path fill="#FFFFFF" d="M149.105,273.17c-33.758,0-65.495-13.146-89.365-37.017c-23.871-23.869-37.017-55.607-37.017-89.365
		c0-33.756,13.146-65.494,37.017-89.363c23.87-23.871,55.607-37.017,89.365-37.017c33.757,0,65.495,13.146,89.364,37.017
		c23.871,23.87,37.017,55.607,37.017,89.363c0,33.758-13.146,65.496-37.017,89.365C214.6,260.023,182.862,273.17,149.105,273.17z
		 M149.105,26.043c-66.58,0-120.747,54.166-120.747,120.745c0,66.581,54.167,120.747,120.747,120.747
		c66.58,0,120.746-54.166,120.746-120.747C269.851,80.209,215.685,26.043,149.105,26.043z"/>
	<path fill="#FFFFFF" d="M148.734,160.03c-7.398,0-13.416-6.019-13.416-13.416c0-7.398,6.018-13.417,13.416-13.417
		s13.417,6.018,13.417,13.417C162.15,154.012,156.132,160.03,148.734,160.03z M148.734,138.833c-4.291,0-7.781,3.49-7.781,7.781
		c0,4.291,3.491,7.78,7.781,7.78c4.292,0,7.782-3.489,7.782-7.78C156.516,142.323,153.025,138.833,148.734,138.833z"/>
	<g>
		<path fill="#FFFFFF" d="M149.286,62.529c-1.556,0-2.817-1.261-2.817-2.817V50.65c0-1.556,1.262-2.817,2.817-2.817
			s2.817,1.261,2.817,2.817v9.062C152.104,61.268,150.842,62.529,149.286,62.529z"/>
		<path fill="#FFFFFF" d="M62.337,149.446h-9.03c-1.556,0-2.817-1.262-2.817-2.816c0-1.556,1.261-2.817,2.817-2.817h9.03
			c1.556,0,2.817,1.261,2.817,2.817C65.155,148.185,63.894,149.446,62.337,149.446z"/>
		<path fill="#FFFFFF" d="M244.351,149.605c-0.048,0-0.097-0.001-0.145-0.002l-8.114-0.416c-1.555-0.078-2.749-1.403-2.67-2.957
			c0.078-1.553,1.399-2.752,2.958-2.669l8.114,0.414c1.553,0.08,2.749,1.403,2.668,2.957
			C247.087,148.438,245.842,149.605,244.351,149.605z"/>
		<path fill="#FFFFFF" d="M87.804,87.964c-0.721,0-1.442-0.274-1.992-0.825l-6.385-6.385c-1.101-1.1-1.101-2.884,0-3.985
			c1.1-1.099,2.884-1.099,3.984,0l6.385,6.386c1.1,1.1,1.1,2.884,0,3.984C89.246,87.69,88.525,87.964,87.804,87.964z"/>
		<path fill="#FFFFFF" d="M181.713,69.603c-0.355,0-0.719-0.069-1.068-0.212c-1.439-0.59-2.128-2.236-1.537-3.675l3.002-7.318
			c0.591-1.44,2.237-2.129,3.676-1.538c1.44,0.591,2.129,2.237,1.538,3.675l-3.003,7.318
			C183.873,68.943,182.822,69.603,181.713,69.603z"/>
		<path fill="#FFFFFF" d="M67.842,118.076c-0.357,0-0.719-0.069-1.068-0.213l-8.354-3.428c-1.44-0.59-2.128-2.237-1.537-3.675
			c0.591-1.44,2.237-2.128,3.676-1.537l8.354,3.428c1.44,0.59,2.128,2.237,1.537,3.675
			C70.002,117.415,68.951,118.076,67.842,118.076z"/>
		<path fill="#FFFFFF" d="M113.997,69.603c-1.13,0-2.197-0.685-2.628-1.801l-2.738-7.072c-0.562-1.451,0.159-3.083,1.61-3.645
			c1.451-0.563,3.083,0.158,3.645,1.61l2.738,7.072c0.562,1.451-0.159,3.083-1.61,3.644
			C114.678,69.54,114.334,69.603,113.997,69.603z"/>
		<path fill="#FFFFFF" d="M228.505,118.076c-1.048,0-2.053-0.587-2.54-1.594c-0.676-1.401-0.088-3.085,1.313-3.762l8.33-4.022
			c1.402-0.676,3.087-0.089,3.764,1.313c0.677,1.4,0.088,3.085-1.312,3.762l-8.332,4.022
			C229.334,117.985,228.915,118.076,228.505,118.076z"/>
		<path fill="#FFFFFF" d="M210.769,87.964c-0.723,0-1.442-0.274-1.993-0.825c-1.101-1.1-1.101-2.884,0-3.984l5.383-5.383
			c1.101-1.1,2.884-1.1,3.984,0c1.1,1.1,1.1,2.885,0,3.985l-5.382,5.382C212.211,87.69,211.488,87.964,210.769,87.964z"/>
		<path fill="#FFFFFF" d="M236.833,186.257c-0.355,0-0.719-0.067-1.067-0.211l-8.355-3.428c-1.439-0.59-2.127-2.237-1.537-3.676
			c0.59-1.439,2.235-2.13,3.676-1.537l8.354,3.427c1.44,0.591,2.128,2.236,1.537,3.677
			C238.994,185.598,237.941,186.257,236.833,186.257z"/>
		<path fill="#FFFFFF" d="M59.491,186.852c-1.047,0-2.053-0.586-2.54-1.593c-0.676-1.401-0.088-3.086,1.312-3.763l8.331-4.021
			c1.402-0.677,3.086-0.09,3.763,1.312c0.677,1.401,0.089,3.086-1.312,3.763l-8.331,4.022
			C60.319,186.762,59.902,186.852,59.491,186.852z"/>
		<path fill="#FFFFFF" d="M58.626,187.201c-1.108,0-2.158-0.656-2.606-1.744c-4.972-12.051-7.492-24.828-7.493-37.975
			c0-54.947,44.703-99.649,99.65-99.649s99.65,44.703,99.65,99.649c-0.002,12.523-2.294,24.733-6.816,36.294
			c-0.111,0.281-0.266,0.544-0.459,0.775l-0.67,0.806c-0.996,1.194-2.771,1.358-3.968,0.362s-1.358-2.772-0.362-3.968l0.375-0.452
			c4.158-10.778,6.264-22.152,6.266-33.817c0-51.84-42.176-94.015-94.015-94.015c-51.84,0-94.015,42.175-94.015,94.015
			c0.001,12.407,2.378,24.46,7.067,35.826c0.593,1.438-0.091,3.087-1.53,3.679C59.348,187.133,58.984,187.201,58.626,187.201z"/>
	</g>
	<path fill="#FFFFFF" d="M129.433,176.174c-1.535,0-3.015-0.64-4.068-1.761l-4.832-5.144c-1.032-1.099-1.582-2.594-1.506-4.1
		c0.076-1.508,0.771-2.939,1.908-3.931l15.782-13.754c1.173-1.021,2.953-0.899,3.976,0.273c1.022,1.173,0.9,2.953-0.273,3.975
		l-15.742,13.719l4.755,5.062l14.084-15.654c1.041-1.156,2.821-1.251,3.979-0.21c1.156,1.041,1.25,2.823,0.21,3.979l-14.122,15.695
		c-1.042,1.158-2.533,1.832-4.09,1.849C129.473,176.173,129.452,176.174,129.433,176.174z"/>
	<path fill="#FFFFFF" d="M158.478,145.258c-0.672,0-1.345-0.238-1.883-0.723c-1.157-1.041-1.252-2.823-0.21-3.979l11.4-12.671
		l-12.843,11.192c-1.175,1.022-2.954,0.898-3.976-0.273c-1.022-1.173-0.9-2.953,0.272-3.976l47.814-41.669
		c1.124-0.979,2.814-0.914,3.859,0.147c1.045,1.062,1.083,2.754,0.086,3.862l-42.426,47.156
		C160.017,144.944,159.249,145.258,158.478,145.258z"/>
	<path fill="#FFFFFF" d="M178.95,216.906h-60.431c-3.078,0-5.582-2.503-5.582-5.58v-10.875c0-3.077,2.503-5.581,5.582-5.581h60.431
		c3.077,0,5.582,2.504,5.582,5.581v10.875C184.532,214.403,182.027,216.906,178.95,216.906z M178.95,211.271v2.817V211.271
		L178.95,211.271L178.95,211.271z M118.572,211.271h60.325v-10.767h-60.325V211.271z"/>
	<path fill="#FFFFFF" d="M165.024,216.906c-1.557,0-2.817-1.261-2.817-2.817v-16.401c0-1.556,1.261-2.817,2.817-2.817
		c1.556,0,2.817,1.262,2.817,2.817v16.401C167.842,215.646,166.58,216.906,165.024,216.906z"/>
	<path fill="#FFFFFF" d="M132.444,216.906c-1.556,0-2.817-1.261-2.817-2.817v-16.401c0-1.556,1.262-2.817,2.817-2.817
		c1.556,0,2.817,1.262,2.817,2.817v16.401C135.262,215.646,134,216.906,132.444,216.906z"/>
	<path fill="#FFFFFF" d="M148.734,216.906c-1.556,0-2.817-1.261-2.817-2.817v-16.401c0-1.556,1.262-2.817,2.817-2.817
		c1.556,0,2.817,1.262,2.817,2.817v16.401C151.551,215.646,150.29,216.906,148.734,216.906z"/>
</g>
</svg>
