<?xml version="1.0" encoding="utf-8"?>
<!-- Generator: Adobe Illustrator 16.0.0, SVG Export Plug-In . SVG Version: 6.00 Build 0)  -->
<!DOCTYPE svg PUBLIC "-//W3C//DTD SVG 1.1//EN" "http://www.w3.org/Graphics/SVG/1.1/DTD/svg11.dtd">
<svg version="1.1" id="Layer_1" xmlns="http://www.w3.org/2000/svg" xmlns:xlink="http://www.w3.org/1999/xlink" x="0px" y="0px"
	 width="600px" height="600px" viewBox="0 0 600 600" enable-background="new 0 0 600 600" xml:space="preserve">
<g>
	<g>
		<path fill="#FFFFFF" d="M368.859,569.527c-3.306,0-5.981-2.678-5.981-5.98c0-3.304,2.676-5.982,5.981-5.982
			c18.688,0,33.892-15.203,33.892-33.892s-15.203-33.893-33.892-33.893c-3.306,0-5.981-2.678-5.981-5.982
			c0-3.304,2.676-5.98,5.981-5.98c25.285,0,45.854,20.569,45.854,45.855C414.713,548.958,394.145,569.527,368.859,569.527z"/>
	</g>
	<g>
		<path fill="#FFFFFF" d="M380.82,489.78c-3.303,0-5.98-2.678-5.98-5.982c0-3.304,2.678-5.98,5.98-5.98
			c18.689,0,33.893-15.203,33.893-33.893s-15.203-33.894-33.893-33.894c-3.303,0-5.98-2.676-5.98-5.98s2.678-5.981,5.98-5.981
			c25.286,0,45.855,20.569,45.855,45.855C426.676,469.209,406.106,489.78,380.82,489.78z"/>
	</g>
	<g>
		<path fill="#FFFFFF" d="M384.809,410.031c-3.304,0-5.981-2.676-5.981-5.98s2.678-5.981,5.981-5.981
			c18.688,0,33.892-15.202,33.892-33.893c0-18.688-15.203-33.893-33.892-33.893c-3.304,0-5.981-2.677-5.981-5.98
			c0-3.305,2.678-5.982,5.981-5.982c25.284,0,45.854,20.569,45.854,45.855C430.663,389.462,410.093,410.031,384.809,410.031z"/>
	</g>
	<g>
		<path fill="#FFFFFF" d="M384.809,330.284c-3.304,0-5.981-2.677-5.981-5.98c0-3.305,2.678-5.982,5.981-5.982
			c18.688,0,33.892-15.203,33.892-33.892c0-18.689-15.203-33.894-33.892-33.894c-3.304,0-5.981-2.676-5.981-5.98
			c0-3.304,2.678-5.981,5.981-5.981c25.284,0,45.854,20.57,45.854,45.855C430.663,309.715,410.093,330.284,384.809,330.284z"/>
	</g>
	<g>
		<path fill="#FFFFFF" d="M392.782,330.284H248.423c-3.304,0-5.981-2.677-5.981-5.98c0-3.305,2.677-5.982,5.981-5.982h144.359
			c3.305,0,5.982,2.678,5.982,5.982C398.765,327.607,396.087,330.284,392.782,330.284z"/>
	</g>
	<g>
		<path fill="#FFFFFF" d="M384.809,250.536H175.164c-3.304,0-5.981-2.676-5.981-5.98c0-3.304,2.677-5.981,5.981-5.981h209.645
			c3.304,0,5.981,2.677,5.981,5.981C390.79,247.859,388.112,250.536,384.809,250.536z"/>
	</g>
	<g>
		<path fill="#FFFFFF" d="M392.782,410.031H248.423c-3.304,0-5.981-2.676-5.981-5.98s2.677-5.981,5.981-5.981h144.359
			c3.305,0,5.982,2.677,5.982,5.981S396.087,410.031,392.782,410.031z"/>
	</g>
	<g>
		<path fill="#FFFFFF" d="M380.82,489.78H248.423c-3.304,0-5.981-2.678-5.981-5.982c0-3.304,2.677-5.98,5.981-5.98H380.82
			c3.304,0,5.982,2.677,5.982,5.98C386.803,487.103,384.124,489.78,380.82,489.78z"/>
	</g>
	<g>
		<path fill="#FFFFFF" d="M368.859,569.527H191.116c-3.304,0-5.98-2.678-5.98-5.98c0-3.304,2.676-5.982,5.98-5.982h177.744
			c3.303,0,5.98,2.679,5.98,5.982C374.84,566.85,372.162,569.527,368.859,569.527z"/>
	</g>
	<g>
		<path fill="#FFFFFF" d="M363.748,78.89c-3.304,0-5.982-2.678-5.982-5.981c0-20.652-16.799-37.452-37.451-37.452
			c-20.65,0-37.451,16.8-37.451,37.452c0,3.304-2.678,5.981-5.981,5.981s-5.98-2.678-5.98-5.981
			c0-27.248,22.166-49.414,49.413-49.414c27.248,0,49.415,22.166,49.415,49.414C369.729,76.212,367.051,78.89,363.748,78.89z"/>
	</g>
	<g>
		<path fill="#FFFFFF" d="M363.746,250.536c-3.304,0-5.981-2.676-5.981-5.98V72.918c0-3.305,2.678-5.981,5.981-5.981
			s5.981,2.676,5.981,5.981v171.637C369.728,247.859,367.05,250.536,363.746,250.536z"/>
	</g>
	<g>
		<path fill="#FFFFFF" d="M167.116,250.539c-2.309,0-4.507-1.346-5.488-3.596c-1.318-3.03,0.068-6.554,3.097-7.872l83.669-36.416
			c13.672-5.95,22.508-19.429,22.508-34.339V72.908c0-3.304,2.677-5.981,5.98-5.981s5.981,2.677,5.981,5.981v95.408
			c0,19.672-11.656,37.458-29.695,45.308l-83.669,36.416C168.722,250.376,167.912,250.539,167.116,250.539z"/>
	</g>
	<g>
		<path fill="#FFFFFF" d="M191.116,569.527c-25.285,0-45.854-20.569-45.854-45.854c0-6.112,1.183-12.049,3.518-17.642
			c1.762-4.22,2.632-8.676,2.591-13.239c-0.051-5.534-2.566-10.851-7.087-14.971c-9.515-8.669-14.972-21.025-14.972-33.896
			c0-5.488,0.962-10.86,2.858-15.968c1.539-4.143,2.34-8.426,2.382-12.724c0.083-8.265-2.714-16.43-8.088-23.613
			c-5.961-7.973-9.114-17.461-9.114-27.443c0-12.788,5.401-25.091,14.816-33.753c2.816-2.589,4.679-5.918,5.389-9.626l0.176-0.925
			c1.01-5.26-0.763-9.848-2.428-12.768c-3.919-6.875-5.991-14.717-5.991-22.676c0-25.286,20.57-45.855,45.855-45.855
			c3.304,0,5.981,2.677,5.981,5.981c0,3.304-2.678,5.98-5.981,5.98c-18.689,0-33.893,15.205-33.893,33.894
			c0,5.885,1.528,11.677,4.422,16.753c3.763,6.604,5.107,14.04,3.785,20.939l-0.175,0.923c-1.2,6.248-4.324,11.843-9.04,16.182
			c-6.96,6.405-10.954,15.499-10.954,24.95c0,7.379,2.327,14.394,6.731,20.277c6.96,9.306,10.58,19.99,10.471,30.898
			c-0.055,5.683-1.108,11.325-3.128,16.771c-1.4,3.77-2.111,7.74-2.111,11.802c0,9.515,4.034,18.646,11.068,25.056
			c7.008,6.388,10.909,14.806,10.991,23.703c0.056,6.189-1.126,12.231-3.515,17.955c-1.723,4.127-2.596,8.512-2.596,13.034
			c0,18.688,15.204,33.892,33.893,33.892c3.304,0,5.981,2.679,5.981,5.982C197.097,566.85,194.419,569.527,191.116,569.527z"/>
	</g>
</g>
</svg>
